<?xml version="1.0" standalone="no"?>
<!DOCTYPE svg PUBLIC "-//W3C//DTD SVG 1.1//EN" "http://www.w3.org/Graphics/SVG/1.1/DTD/svg11.dtd" >
<svg xmlns="http://www.w3.org/2000/svg">
<metadata></metadata>
<defs>
<font id="hvoguenormal" horiz-adv-x="535" >
<font-face units-per-em="1000" ascent="800" descent="-200" />
<missing-glyph horiz-adv-x="240" />
<glyph unicode="&#xd;" horiz-adv-x="240" />
<glyph unicode=" "  horiz-adv-x="240" />
<glyph unicode="&#x09;" horiz-adv-x="240" />
<glyph unicode="&#xa0;" horiz-adv-x="240" />
<glyph unicode="!" horiz-adv-x="277" d="M104 236v438q0 20 12.5 31.5t29.5 11.5q19 0 32 -11t13 -32v-436q0 -23 -12 -36t-33 -13q-17 2 -29.5 14t-12.5 33zM148 -6q-22 0 -37 15t-15 36t15 36t37 15q21 0 36 -15t15 -36q0 -20 -14.5 -35.5t-36.5 -15.5z" />
<glyph unicode="&#x22;" horiz-adv-x="314" d="M55 676q0 21 12 32t29 11t29 -11t12 -32v-141q0 -17 -12.5 -27t-30.5 -12q-19 2 -29 11t-10 28v141zM197 676q0 21 12 32t29 11q18 0 29.5 -10.5t11.5 -32.5v-141q0 -19 -12 -29t-31 -10q-18 2 -27 10q-12 11 -12 29v141z" />
<glyph unicode="#" d="M154 496l28 186q3 24 12 30.5t25 6.5q13 0 23 -8t10 -27v-12l-23 -176h117l27 188q3 20 12.5 27.5t26.5 7.5q15 0 24.5 -8.5t9.5 -27.5q-1 -6 -1 -9l-25 -178h62q19 0 30 -10t11 -25q0 -12 -10.5 -21.5t-30.5 -9.5h-70l-21 -149h62q39 0 39 -33q0 -12 -9.5 -21.5 t-27.5 -9.5h-74l-26 -184q-2 -23 -9.5 -31t-27.5 -8q-16 0 -26.5 8.5t-10.5 28.5l2 10l26 176h-120l-25 -184q-3 -23 -11 -31t-28 -8q-35 0 -35 37q2 4 2 12l23 174h-64q-18 0 -27.5 8.5t-11.5 22.5q3 33 43 33h70l21 149h-64q-18 0 -28.5 8.5t-12.5 22.5q4 35 39 35h74z M199 281h117l22 149h-119z" />
<glyph unicode="$" horiz-adv-x="463" d="M219 719v49q0 17 19 17q22 0 22 -19v-47q54 -5 90 -20q23 -9 45 -27q17 -15 17 -37q0 -16 -11.5 -27.5t-29.5 -11.5q-14 4 -51 24.5t-60 22.5v-219q102 -33 148 -78q53 -52 53 -141q-8 -84 -61.5 -140.5t-139.5 -66.5v-51q0 -21 -22 -21q-19 0 -19 21v47q-52 0 -97 13.5 t-73.5 33.5t-28.5 41q3 19 10.5 30t24.5 11q12 0 18 -1t15 -7q33 -22 66.5 -33.5t64.5 -11.5v278q-99 31 -141 68q-51 45 -51 123q0 66 55.5 119.5t136.5 60.5zM219 439v204q-41 -5 -69.5 -31.5t-28.5 -68.5q0 -39 27 -65q23 -22 71 -39zM260 332v-258q44 8 73 42 q34 39 34 97q0 41 -19 65q-24 30 -88 54z" />
<glyph unicode="%" horiz-adv-x="740" d="M201 37l276 662q10 28 31 28q14 0 25.5 -7t11.5 -21q0 -7 -4 -19l-279 -670q-6 -24 -35 -24q-27 0 -34 28zM41 545q0 74 37 121q42 53 117 53q64 0 107.5 -48t43.5 -126q0 -77 -43.5 -120.5t-109.5 -43.5t-109 46t-43 118zM107 547q0 -48 24 -80.5t62 -32.5q43 0 64.5 30 t21.5 83t-23 85t-61 32q-43 0 -65.5 -32.5t-22.5 -84.5zM395 156q0 74 37 121q42 53 117 53q65 0 107.5 -47.5t42.5 -126.5q0 -76 -43 -120t-109 -44q-67 0 -109.5 46.5t-42.5 117.5zM461 158q0 -47 24 -79t62 -32q43 0 66 37q20 32 20 78q0 52 -24 82.5t-62 30.5 q-43 0 -64.5 -32t-21.5 -85z" />
<glyph unicode="&#x26;" horiz-adv-x="668" d="M270 473q48 25 70.5 52.5t22.5 54.5q0 30 -23.5 49t-58.5 19q-37 0 -57.5 -21.5t-20.5 -50.5q0 -3 0.5 -5t3 -13.5t23.5 -38.5q10 -12 40 -46zM426 168l-182 209q-67 -35 -97 -80q-26 -39 -26 -86q0 -60 38.5 -98.5t100.5 -38.5q43 0 87.5 24t78.5 70zM195 434 q-47 50 -62.5 81t-15.5 73q0 62 48.5 96.5t115.5 34.5q69 0 117.5 -34.5t48.5 -96.5q0 -47 -24 -83q-31 -47 -105 -87l159 -189q13 16 30 43q25 39 28 44q24 43 47 43q16 0 26.5 -7t10.5 -22q0 -29 -20 -64q-6 -11 -72 -94l92 -111q12 -15 12 -34q0 -13 -11 -22t-28 -9 q-18 0 -29 12l-86 101q-47 -58 -104 -86.5t-121 -28.5q-92 0 -154.5 58.5t-62.5 150.5l4 41q9 54 35 90q36 50 121 100z" />
<glyph unicode="'" horiz-adv-x="186" d="M33 564l61 122q8 17 19 24t24 7q17 0 30 -9.5t13 -27.5q0 -11 -1 -15.5t-7 -16.5l-63 -121q-8 -18 -18.5 -25.5t-22.5 -9.5q-39 7 -45 43q2 8 3.5 12.5t6.5 16.5z" />
<glyph unicode="(" horiz-adv-x="203" d="M125 699q7 20 18 28.5t25 8.5t23.5 -8.5t9.5 -22.5q0 -23 -12 -60q-18 -54 -19 -61q-24 -123 -24 -254q0 -150 14 -239q11 -71 37 -138l4 -21q0 -13 -10.5 -22.5t-24.5 -9.5t-23 8.5t-16 25.5q-37 84 -52 198q-11 86 -11 206q0 100 16 192t45 169z" />
<glyph unicode=")" horiz-adv-x="203" d="M115 699q34 -86 49 -194q12 -87 12 -200q0 -107 -12 -189q-15 -104 -51 -182q-7 -16 -16 -25t-23 -9q-15 0 -25 9t-12 25q30 88 43.5 190t13.5 206q0 103 -11.5 186.5t-41.5 172.5q0 10 -2 14q2 14 9.5 23.5t21.5 9.5q15 0 26.5 -8.5t18.5 -28.5z" />
<glyph unicode="*" horiz-adv-x="389" d="M170 580q0 22 -4 47.5t-8 50.5q0 18 11 29.5t26 11.5q35 0 35 -35q1 -14 -1 -31q-8 -61 -8 -73q22 19 44 39q30 24 53 24q15 0 24.5 -10.5t9.5 -25.5q0 -18 -20 -27l-92 -39l96 -39q18 -6 18 -29q0 -13 -10 -24t-26 -11q-17 2 -33 15l-64 51q0 -20 2 -36q7 -57 7 -62 q0 -40 -37 -43q-14 0 -24.5 10.5t-10.5 28.5q12 45 12 96v6q-23 -20 -46 -39q-29 -23 -54 -27q-13 0 -22 11t-11 26q3 21 20 27l93 39q-44 14 -67 23q-43 16 -48 43q0 15 10.5 25.5t26.5 10.5q21 0 52 -24q23 -20 46 -39z" />
<glyph unicode="+" horiz-adv-x="600" d="M260 295v172q0 18 11.5 28.5t29.5 10.5q16 0 28.5 -10.5t12.5 -28.5v-172h174q19 0 29 -12t10 -29q0 -18 -10.5 -29.5t-30.5 -11.5h-172v-174q0 -19 -12 -29t-29 -10q-18 0 -29.5 10.5t-11.5 30.5v172h-176q-16 0 -26.5 12t-12.5 29q2 17 12 29t27 12h176z" />
<glyph unicode="," horiz-adv-x="240" d="M29 -59l65 127q16 28 41 28q16 0 27.5 -10.5t11.5 -28.5q0 -15 -6 -30l-64 -125q-15 -29 -45 -29q-16 0 -27.5 10.5t-11.5 28.5q2 18 9 29z" />
<glyph unicode="-" horiz-adv-x="352" d="M74 307h201q20 0 30.5 -10.5t10.5 -28.5q0 -38 -41 -38h-199q-19 0 -30 10.5t-13 25.5q2 16 13 28.5t28 12.5z" />
<glyph unicode="." horiz-adv-x="240" d="M125 96q21 0 36 -15t15 -36t-15 -36t-36 -15t-36 15t-15 36t15 36t36 15z" />
<glyph unicode="/" horiz-adv-x="406" d="M23 55l284 634q11 30 41 30q15 0 27 -10t12 -27q0 -8 -4 -20l-283 -637q-6 -15 -18 -23t-25 -8q-15 0 -26.5 10t-12.5 27z" />
<glyph unicode="0" d="M33 369q0 128 50 225q64 125 187 125q113 0 178 -116q56 -100 56 -236q0 -168 -64.5 -270.5t-169.5 -102.5q-116 0 -179 110q-58 101 -58 265zM127 365q0 -126 34 -206q38 -89 109 -89q67 0 105 86q35 78 35 192q0 148 -39 221.5t-105 73.5q-69 0 -107 -91 q-32 -77 -32 -187z" />
<glyph unicode="1" horiz-adv-x="352" d="M164 637h-90q-17 0 -28 10.5t-13 26.5q2 16 13 27.5t30 11.5h151q14 0 19.5 -4t5.5 -21v-647q0 -22 -13.5 -34.5t-31.5 -12.5q-16 0 -29.5 12.5t-13.5 34.5v596z" />
<glyph unicode="2" d="M51 496q0 93 57 155q62 68 171 68q81 0 136.5 -52.5t55.5 -133.5q0 -36 -12 -70.5t-41 -73.5l-236 -313h271q37 0 37 -39q0 -16 -9.5 -26.5t-29.5 -10.5h-351q-17 0 -29.5 7.5t-13.5 23.5q3 16 4 20t7 12l270 363q37 50 37 105q0 47 -32.5 78.5t-80.5 31.5 q-54 0 -90.5 -44t-36.5 -101t-43 -57l-4 2q-37 0 -37 55z" />
<glyph unicode="3" d="M66 557q9 74 62 118t136 44q77 0 127 -57q47 -54 47 -129q0 -43 -20.5 -83t-62.5 -67q60 -19 90 -65.5t30 -108.5q0 -13 -1.5 -28t-2.5 -23q-13 -69 -67 -113q-62 -51 -164 -51q-72 0 -126 40.5t-71 100.5l-4 25q0 18 12.5 32.5t30.5 14.5q31 0 44 -42.5t43.5 -66.5 t76.5 -30q54 0 95.5 36.5t41.5 88.5q0 143 -121 143q-56 0 -59 35q0 22 25 32q11 4 36 11q44 12 65 42t21 87q0 44 -29 72t-71 28q-43 0 -70 -23q-32 -28 -32 -81q0 -20 -11.5 -31.5t-29.5 -13.5q-41 4 -41 63z" />
<glyph unicode="4" d="M334 184h-283q-40 0 -43 25q3 21 21 51l258 418q16 28 31 34.5t37 6.5q32 0 49.5 -19.5t17.5 -51.5v-388h45q17 0 28 -12t11 -29q0 -15 -11 -25t-32 -10h-41v-143q0 -22 -13.5 -34.5t-31.5 -12.5q-19 0 -31 11.5t-12 33.5v145zM334 260v365l-211 -365h211z" />
<glyph unicode="5" d="M148 674q5 27 9 33t23 6h252q17 0 27 -11t10 -28q0 -16 -10.5 -26.5t-28.5 -10.5h-201l-30 -194q21 10 45 15t45 5q89 0 140 -75q46 -68 46 -167q-10 -114 -79 -174q-61 -53 -150 -53q-65 0 -123 27q-70 33 -80 90q0 15 9 26t22 11q21 0 37 -17q29 -27 62.5 -42t68.5 -15 q58 0 96 37q43 42 43 112q0 78 -33 118t-92 40q-21 0 -46 -7q-71 -20 -75 -20q-27 0 -30 31l2 13z" />
<glyph unicode="6" d="M309 705q15 14 31 14t25.5 -13.5t9.5 -29.5q0 -20 -29 -46q-22 -19 -43 -38q-40 -43 -68 -84q-15 -22 -46 -76q58 29 112 29q86 0 137 -78q46 -70 46 -162q0 -100 -64.5 -163.5t-155.5 -63.5q-96 0 -154.5 72t-58.5 182l4 55q20 134 113 257q58 77 141 145zM143 260 l-4 -35q0 -65 34 -107t91 -42q67 0 98 53q27 46 27 125q-6 62 -35 96.5t-84 34.5q-52 0 -84 -28q-36 -32 -43 -97z" />
<glyph unicode="7" horiz-adv-x="480" d="M68 643q-20 0 -31.5 10.5t-13.5 26.5q2 16 13 27.5t30 11.5h364q45 0 45 -24q0 -6 -4.5 -18.5t-5.5 -16.5l-276 -627q-16 -39 -54 -39q-13 0 -23.5 9.5t-11.5 25.5l9 35l256 577l2 2h-299z" />
<glyph unicode="8" d="M143 213q0 -54 30 -95q35 -48 93 -48q60 0 95 44q32 40 32 101q0 57 -31 97q-35 45 -96 45q-58 0 -90.5 -43t-32.5 -101zM168 539q0 -49 25.5 -77t76.5 -28q48 0 73.5 30.5t25.5 76.5q0 43 -26.5 72.5t-71.5 29.5q-48 0 -75.5 -27.5t-27.5 -76.5zM180 398 q-45 24 -69.5 66t-24.5 87q0 69 45 116q50 52 133 52q88 0 139 -51q46 -46 46 -117q0 -48 -23 -90t-69 -65q63 -15 96 -64.5t33 -114.5q0 -88 -55 -152q-61 -71 -161 -71t-163 71q-58 65 -58 154q0 65 33 113.5t98 65.5z" />
<glyph unicode="9" d="M227 8q-18 -12 -34 -12q-15 0 -24 11.5t-11 27.5l2 12q4 9 20 24l54 50q40 44 67 85q8 12 45 75q-53 -29 -110 -29q-27 0 -47.5 5.5t-40.5 17.5q-49 31 -75 96q-22 56 -22 121q0 100 64.5 163.5t155.5 63.5q95 0 153 -73t58 -183q0 -126 -77 -253q-66 -110 -178 -202z M395 453v29q0 69 -33 112t-91 43q-67 0 -98 -53q-27 -46 -27 -125q6 -62 35 -96.5t85 -34.5q51 0 83 28q37 33 46 97z" />
<glyph unicode=":" horiz-adv-x="240" d="M125 -6q-21 0 -36 14t-15 37q0 21 15 36t36 15t36 -15t15 -36q0 -22 -14.5 -36.5t-36.5 -14.5zM125 330q-21 0 -36 15t-15 36t15 36t36 15t36 -15t15 -36t-14 -36t-37 -15z" />
<glyph unicode=";" horiz-adv-x="240" d="M125 330q-21 0 -36 15t-15 36t15 36t36 15t36 -15t15 -36t-14 -36t-37 -15zM27 -63l69 133q6 13 16.5 19.5t24.5 6.5q16 0 27.5 -9.5t11.5 -27.5q0 -10 -8 -30l-63 -127q-6 -13 -18.5 -20t-25.5 -7q-15 0 -28 11t-13 28q2 14 7 23z" />
<glyph unicode="&#x3c;" horiz-adv-x="600" d="M78 297l414 207q4 2 15.5 5t15.5 3q15 0 24.5 -9.5t9.5 -23.5q0 -12 -8 -23t-24 -18l-375 -184l381 -190q24 -11 24 -37q0 -33 -34 -33q-7 0 -27 8l-422 209q-24 14 -27 39q3 31 33 47z" />
<glyph unicode="=" horiz-adv-x="600" d="M514 316h-426q-19 0 -30 11.5t-13 27.5q0 18 11.5 30.5t31.5 12.5h428q18 0 27.5 -11.5t9.5 -29.5q0 -14 -4 -22q-10 -19 -35 -19zM514 107h-426q-19 0 -30 11.5t-13 27.5q0 18 11.5 30.5t31.5 12.5h428q18 0 27.5 -11.5t9.5 -29.5q0 -14 -4 -22q-10 -19 -35 -19z" />
<glyph unicode="&#x3e;" horiz-adv-x="600" d="M523 297q32 -16 32 -47q0 -23 -28 -39l-420 -209q-1 -1 -10.5 -4.5t-18.5 -3.5q-14 0 -22.5 9.5t-10.5 23.5q2 14 7.5 23.5t17.5 13.5l381 190l-375 184q-16 8 -24.5 19t-10.5 23q0 13 10.5 22.5t26.5 9.5q9 0 14.5 -1.5t16.5 -6.5z" />
<glyph unicode="?" horiz-adv-x="443" d="M215 -6q-21 0 -37 15t-16 36t15 36t38 15q21 0 36 -15t15 -36t-15 -36t-36 -15zM170 234v133q0 34 39 44q24 6 51 13t45 27q25 27 25 70q0 52 -31 84t-86 32q-42 0 -70.5 -19.5t-37.5 -53.5q-14 -44 -42 -44q-25 8 -33 15q-12 10 -12 33l2 20q12 52 65 90q58 41 134 41 q77 0 136 -44q66 -49 73 -132q0 -82 -44 -135t-126 -70v-104q0 -19 -13 -31t-32 -14q-18 2 -30.5 13.5t-12.5 31.5z" />
<glyph unicode="@" horiz-adv-x="801" d="M521 482l14 41q5 19 12 24.5t21 5.5q15 0 26 -6t11 -20l-1 -13l-71 -243l-6 -33q0 -26 30 -29q63 15 99 76q32 55 32 127q0 109 -83 174.5t-203 65.5q-119 0 -202 -80q-89 -86 -89 -222q0 -129 96 -213q87 -76 199 -76q85 0 139 23q34 15 90 59q33 27 53 27q9 0 17 -7 t8 -17q0 -13 -16 -35q-29 -34 -100 -69q-97 -48 -193 -48q-149 0 -258 104t-109 252q0 164 119 271q109 98 248 98q146 0 248 -78t112 -200q0 -115 -66 -204q-72 -96 -180 -96q-30 0 -49 14.5t-22 43.5h-4q-49 -58 -119 -58q-65 0 -105.5 46.5t-40.5 113.5q0 100 60 175 q65 81 166 81q43 0 71.5 -20t45.5 -55zM275 367q-2 -9 -4.5 -26.5l-4.5 -31.5q0 -40 21 -62t61 -30q61 0 101 65q35 57 35 126q0 33 -14 53.5t-46 20.5q-10 1 -14 1q-53 0 -91 -39q-30 -31 -44 -77z" />
<glyph unicode="A" horiz-adv-x="611" d="M168 230h277l-138 387zM141 154l-47 -129q-9 -31 -45 -31q-38 0 -41 35l6 24l230 615q9 25 25 39t36 14q43 0 62 -51l233 -617q4 -16 4 -26q0 -35 -41 -35q-16 0 -28 7.5t-17 25.5l-47 129h-330z" />
<glyph unicode="B" horiz-adv-x="537" d="M59 666q0 24 12.5 35.5t32.5 11.5h160q80 0 134.5 -48.5t54.5 -119.5q0 -49 -21 -90q-26 -51 -78 -68q88 -18 127 -83q27 -44 27 -99q0 -81 -58 -140q-64 -65 -167 -65h-176q-26 0 -37 13t-11 34v619zM146 637v-225h102q56 0 88 35q29 31 29 78q0 45 -27 77 q-30 35 -80 35h-112zM146 340v-264h118q76 0 116 37.5t40 93.5q0 55 -36 92q-40 41 -111 41h-127z" />
<glyph unicode="C" horiz-adv-x="594" d="M543 643q12 -15 12 -34q0 -15 -10 -25t-27 -12q-6 1 -11.5 2.5t-10.5 5.5q-28 20 -56 41q-37 22 -88 22q-114 0 -176 -96q-51 -79 -51 -184q0 -103 41 -183q57 -110 172 -110q41 0 74 9.5t94 45.5q9 5 16.5 6.5t12.5 1.5q17 0 25 -10.5t8 -28.5q0 -23 -13 -33 q-38 -36 -103 -53q-52 -14 -108 -14q-157 0 -243 123q-70 100 -70 229q0 158 78 260q86 113 237 113q57 0 111.5 -19.5t85.5 -56.5z" />
<glyph unicode="D" horiz-adv-x="631" d="M150 637v-561h137q77 0 134 50q85 75 85 239q0 127 -62.5 199.5t-168.5 72.5h-125zM63 666q0 23 12 35t34 12h180q144 0 230 -105q81 -99 81 -249q0 -161 -77 -257q-82 -102 -226 -102h-188q-25 0 -35.5 13t-10.5 26v627z" />
<glyph unicode="E" horiz-adv-x="443" d="M59 664q0 23 11 36t26 13h269q17 0 27 -12t10 -29q0 -13 -5 -22q-10 -19 -34 -19h-217v-235h198q18 0 28.5 -11.5t10.5 -29.5q0 -17 -11 -29t-30 -12h-196v-232h219q17 0 27 -12t10 -31q0 -16 -10.5 -27.5t-32.5 -11.5h-257q-28 0 -38 21q-5 11 -5 26v617z" />
<glyph unicode="F" horiz-adv-x="406" d="M59 664q0 23 11 36t26 13h269q14 0 23.5 -12.5t9.5 -30.5q0 -16 -10.5 -27.5t-30.5 -11.5h-211v-235h190q19 0 29 -12t10 -30q0 -15 -10.5 -27.5t-26.5 -12.5h-192v-273q0 -22 -12.5 -34.5t-31.5 -12.5t-31 11.5t-12 33.5v625z" />
<glyph unicode="G" horiz-adv-x="668" d="M590 631q4 -4 7 -11t3 -18q0 -16 -12.5 -27.5t-30.5 -11.5t-34 13q-44 33 -66 44q-47 23 -105 23q-116 0 -178 -97q-49 -77 -49 -183q0 -105 41 -184q57 -109 172 -109q87 0 148 51q73 61 73 174v31h-127q-19 0 -29 11t-12 28q0 19 9.5 31t27.5 12h160q35 0 49 -23 q9 -15 9 -43v-16q0 -75 -15 -130q-24 -88 -83 -138q-75 -64 -204 -64q-158 0 -244 124q-69 99 -69 228q0 160 78 262q85 111 237 111q74 0 141.5 -23t102.5 -65z" />
<glyph unicode="H" horiz-adv-x="668" d="M59 668q0 24 12.5 37.5t30.5 13.5q19 0 31.5 -13.5t12.5 -37.5v-273h375v273q0 26 12.5 39.5t30.5 13.5q19 0 32 -14t13 -39v-625q0 -24 -12.5 -36.5t-32.5 -12.5q-17 0 -30 13t-13 36v275h-375v-275q0 -24 -12.5 -36.5t-31.5 -12.5q-18 0 -30.5 12.5t-12.5 36.5v625z " />
<glyph unicode="I" horiz-adv-x="203" d="M59 672q0 24 12.5 35.5t32.5 11.5q17 0 29.5 -11.5t12.5 -35.5v-629q0 -28 -16 -40q-12 -9 -26 -9q-17 0 -28 8q-17 12 -17 39v631z" />
<glyph unicode="J" horiz-adv-x="352" d="M225 674q0 21 13 33t30 12q19 0 32 -12t13 -33v-488q0 -71 -20 -113q-37 -79 -141 -79q-55 0 -107.5 23t-52.5 55q0 19 10 28t25 9q12 0 24 -4q18 -12 39 -23.5t58 -11.5q33 0 53 21q24 25 24 77v506z" />
<glyph unicode="K" horiz-adv-x="557" d="M59 672q0 22 12.5 34.5t30.5 12.5q19 0 31.5 -11.5t12.5 -33.5v-262l315 289q21 18 39 18q15 0 26 -12t11 -29q0 -23 -17 -37l-293 -264l324 -313q9 -6 12 -14.5t3 -20.5q0 -16 -11.5 -26.5t-31.5 -10.5q-24 0 -44 22l-333 326v-301q0 -21 -13 -33t-31 -12 q-19 0 -31 11.5t-12 33.5v633z" />
<glyph unicode="L" horiz-adv-x="369" d="M59 672q0 24 12.5 35.5t32.5 11.5q25 0 35 -18q7 -13 7 -33v-586h180q20 0 35.5 -10t15.5 -29q0 -28 -18 -38q-6 -3 -19 -5h-240q-6 0 -13 2t-15 9.5t-10.5 14.5t-2.5 27v619z" />
<glyph unicode="M" horiz-adv-x="834" d="M133 658q4 30 23.5 46.5t42.5 16.5q24 0 41.5 -12.5t23.5 -36.5l152 -522l154 526q6 20 23.5 32.5t39.5 12.5q25 0 44.5 -15.5t23.5 -43.5l104 -611q1 -4 1 -12q0 -22 -12.5 -34.5t-31.5 -12.5q-17 0 -29.5 10.5t-15.5 28.5l-82 576l-174 -580q-9 -35 -43 -35 q-35 0 -45 35l-172 580l-84 -580q-3 -20 -16.5 -31.5t-32.5 -11.5q-16 0 -28.5 13t-12.5 38l2 20z" />
<glyph unicode="N" horiz-adv-x="666" d="M59 674q0 47 37 47q30 0 50 -30l374 -537l1 518q0 22 12.5 34.5t30.5 12.5t31.5 -12.5t13.5 -34.5v-635q0 -21 -11 -33t-28 -12q-27 0 -49 28l-373 537l-2 2v-522q0 -21 -13 -32t-31 -11q-19 0 -31 11t-12 34v635z" />
<glyph unicode="O" horiz-adv-x="684" d="M31 355q0 150 81 253q88 111 232 111t231 -109q81 -102 81 -255q0 -151 -82 -253q-87 -108 -230 -108q-134 0 -222 99q-91 102 -91 262zM125 357q0 -109 43 -185q58 -102 176 -102q94 0 154 71q65 77 65 216q0 138 -64 215q-59 71 -155 71q-95 0 -155 -73 q-64 -78 -64 -213z" />
<glyph unicode="P" horiz-adv-x="520" d="M59 666q0 26 14 36.5t29 10.5h177q97 0 161 -56q70 -61 70 -167q0 -93 -63.5 -158.5t-155.5 -65.5h-145v-229q0 -20 -12.5 -31.5t-31.5 -11.5t-31 11.5t-12 33.5v627zM146 637v-295h125q67 0 109 42t42 108q0 68 -41.5 106.5t-105.5 38.5h-129z" />
<glyph unicode="Q" horiz-adv-x="684" d="M31 355q0 150 81 253q88 111 232 111t231 -109q81 -102 81 -255q0 -62 -16.5 -120t-45.5 -104l82 -82q8 -11 8 -28q0 -13 -11 -23t-28 -10q-15 0 -30 12l-72 70q-40 -37 -89.5 -56.5t-109.5 -19.5q-134 0 -222 99q-91 102 -91 262zM125 357q0 -109 43 -185 q58 -102 176 -102q85 0 142 57l-64 62q-7 7 -10.5 15t-5.5 17q0 15 11 26t26 11q19 0 34 -12l52 -53q15 34 24.5 76.5t9.5 87.5q0 138 -64 215q-59 71 -155 71q-95 0 -155 -73q-64 -78 -64 -213z" />
<glyph unicode="R" horiz-adv-x="520" d="M146 637v-254h124q74 0 104 38q24 30 24 91q0 57 -38 91t-94 34h-120zM59 666q0 26 14 36.5t29 10.5h171q80 0 142 -48q72 -55 72 -146q0 -12 -1 -19q0 -101 -64 -145q-56 -39 -168 -39l228 -250q18 -17 18 -39q0 -13 -12 -22t-29 -9q-16 0 -24.5 4t-16.5 14l-272 299 v-276q0 -21 -13 -32t-31 -11q-19 0 -31 11t-12 34v627z" />
<glyph unicode="S" horiz-adv-x="463" d="M383 682q14 -10 21.5 -22.5t7.5 -24.5q0 -16 -11.5 -27.5t-29.5 -11.5q-18 4 -63 25.5t-74 21.5q-48 0 -78.5 -28.5t-36.5 -75.5q0 -31 22 -55t62 -41q78 -27 122 -45q81 -34 108.5 -80t27.5 -101q0 -88 -60 -152q-67 -71 -180 -71q-56 0 -105.5 14.5t-74.5 34.5 q-21 15 -21 39q0 18 10.5 30.5t28.5 12.5q9 0 25 -8q30 -20 58 -31q42 -16 90 -16q56 0 94.5 41.5t38.5 97.5q0 79 -113 123q-52 18 -104 37q-61 30 -86 58q-35 40 -35 104q0 82 68 137q63 51 145 51q39 0 78 -10t65 -27z" />
<glyph unicode="T" horiz-adv-x="426" d="M178 631h-137q-18 0 -28.5 11.5t-12.5 29.5q2 17 13 29t30 12h357q22 0 32.5 -11.5t10.5 -29.5q0 -13 -5 -22q-10 -19 -34 -19h-138v-592q0 -20 -13.5 -32.5t-31.5 -12.5q-19 0 -31 11.5t-12 33.5v592z" />
<glyph unicode="U" horiz-adv-x="666" d="M59 674q0 21 13 33t30 12q19 0 31.5 -11.5t12.5 -33.5v-428q0 -85 57 -132q53 -44 137 -44t133.5 48.5t49.5 127.5v428q0 21 12 33t29 12q19 0 32 -12t13 -33v-399q0 -131 -66 -204q-70 -77 -205 -77q-139 0 -211 77q-68 73 -68 202v401z" />
<glyph unicode="V" horiz-adv-x="557" d="M8 652l-8 32q0 21 11 33t28 12q35 0 51 -45l187 -541l190 543q12 35 47 35q17 0 28 -11t11 -32q0 -8 -4 -24l-221 -617q-11 -27 -19.5 -35t-29.5 -8q-36 0 -49 39z" />
<glyph unicode="W" horiz-adv-x="816" d="M701 53q-4 -30 -23.5 -46.5t-44.5 -16.5q-22 0 -39.5 12.5t-23.5 34.5l-152 524l-154 -526q-6 -21 -24 -33t-41 -12q-24 0 -43 15.5t-23 43.5l-104 611q-1 4 -1 12q0 22 12.5 34.5t29.5 12.5q41 0 47 -39l82 -576l174 580q9 35 41 35q37 0 47 -35l172 -580l84 580 q3 21 15.5 32t31.5 11q17 0 29 -13t12 -40v-18z" />
<glyph unicode="X" horiz-adv-x="594" d="M246 383l-187 263q-5 8 -10 19.5t-6 18.5q0 15 12 25t27 10q30 0 45 -24l170 -248l170 248q15 24 43 24q15 0 26 -10t11 -27q0 -18 -12 -36l-187 -263l226 -319q12 -17 12 -35q0 -14 -11.5 -24.5t-29.5 -10.5q-23 0 -39 22l-209 297l-209 -297q-14 -22 -41 -22 q-14 0 -26 10.5t-13 26.5q3 15 12 30z" />
<glyph unicode="Y" horiz-adv-x="482" d="M207 336l-195 316q-9 19 -12 32q0 15 12 25t27 10q28 0 43 -24l168 -273l168 271q7 13 18 19.5t23 6.5q16 0 27.5 -10.5t11.5 -26.5q0 -15 -8 -28l-195 -318v-295q0 -22 -13.5 -35.5t-31.5 -13.5q-16 0 -29.5 13.5t-13.5 35.5v295z" />
<glyph unicode="Z" horiz-adv-x="557" d="M406 637h-324q-19 0 -30 10.5t-13 26.5q2 17 13 28t32 11h391q45 0 45 -35q0 -17 -16 -41l-373 -561h361q20 0 30.5 -10.5t10.5 -26.5q0 -15 -11 -27t-32 -12h-418q-25 0 -37 10.5t-14 28.5q2 13 4 18.5t10 18.5z" />
<glyph unicode="[" horiz-adv-x="223" d="M76 670q0 24 12.5 36.5t34.5 12.5h68q18 0 28.5 -11.5t10.5 -27.5q0 -14 -10.5 -25.5t-26.5 -11.5h-35v-649h33q17 0 28 -12t11 -27q0 -37 -42 -37h-65q-21 0 -34 12t-13 35v705z" />
<glyph unicode="\" horiz-adv-x="406" d="M27 652l-9 32q0 14 6 22q11 15 31 15q31 0 43 -26l285 -640q6 -15 6 -30t-11 -25t-26 -10q-30 0 -41 28z" />
<glyph unicode="]" horiz-adv-x="223" d="M164 -33q0 -25 -12 -37t-33 -12h-70q-18 0 -28.5 11.5t-10.5 27.5q0 14 10.5 25.5t26.5 11.5h35v649h-33q-17 0 -28 11.5t-13 27.5q2 16 12.5 26.5t32.5 10.5h64q47 0 47 -47v-705z" />
<glyph unicode="^" horiz-adv-x="600" d="M63 346l191 342q19 33 45 33q29 0 49 -35l191 -340q6 -12 6 -24q0 -13 -10.5 -23t-26.5 -12q-11 2 -21 9.5t-18 21.5l-168 313l-174 -318q-11 -23 -37 -26q-14 0 -23.5 9.5t-11.5 25.5q1 6 2.5 11.5t5.5 12.5z" />
<glyph unicode="_" horiz-adv-x="500" d="M0 -125q-14 0 -22.5 8.5t-8.5 20.5q0 22 29 22h502q11 0 21 -5.5t10 -20.5q0 -10 -8.5 -17.5t-22.5 -7.5h-500z" />
<glyph unicode="`" horiz-adv-x="203" d="M227 824q-15 6 -22.5 16t-9.5 21q0 17 13 29t30 12q12 0 16 -2l133 -56q16 -6 24.5 -16.5t8.5 -22.5q0 -16 -11.5 -26.5t-31.5 -10.5l-23 5z" />
<glyph unicode="a" horiz-adv-x="557" d="M123 266q0 -81 34 -135q38 -61 107 -61q81 0 119 63q31 51 31 133q0 91 -39.5 144t-104.5 53q-73 0 -112 -58q-35 -52 -35 -139zM416 496q0 20 11.5 31.5t29.5 11.5t29.5 -11.5t11.5 -33.5v-455q0 -22 -11.5 -33.5t-29.5 -11.5q-17 0 -29 11t-12 30v39q-26 -33 -48 -49 q-42 -31 -93 -31q-102 0 -169 72q-71 76 -71 198q0 132 76 209q66 66 153 66q49 0 81.5 -16t68.5 -56z" />
<glyph unicode="b" horiz-adv-x="557" d="M434 268q0 84 -37 139.5t-104 55.5t-110.5 -51.5t-43.5 -141.5l2 -4q0 -80 33 -132q41 -64 121 -64q68 0 106 62q33 55 33 136zM150 467q27 33 61 51q39 21 84 21q100 0 163 -79.5t63 -195.5q0 -120 -65 -195t-171 -75q-54 0 -90 24q-28 18 -43 48l-2 -29 q0 -20 -12.5 -31.5t-32.5 -11.5q-18 0 -30 11.5t-12 33.5v688q0 21 12.5 33.5t29.5 12.5q18 0 31.5 -11.5t13.5 -32.5v-262z" />
<glyph unicode="c" horiz-adv-x="443" d="M414 490q4 -12 4 -19q0 -15 -11 -25.5t-28 -11.5q-33 12 -50 17q-31 10 -54 10q-71 0 -114 -60q-38 -53 -38 -128q0 -76 25 -129q35 -74 106 -74q16 0 21 -2q24 0 45 8q26 12 38.5 18t22.5 6q15 0 24 -10t9 -27q0 -38 -54 -56q-39 -13 -85 -13q-109 0 -174.5 75 t-65.5 185q0 120 55 197q63 88 181 88q55 0 93 -14t50 -35z" />
<glyph unicode="d" horiz-adv-x="557" d="M123 268q0 -83 32 -136q37 -62 107 -62q81 0 121 63q33 52 33 133q0 88 -40.5 142.5t-105.5 54.5q-73 0 -113 -65q-34 -55 -34 -130zM406 729q0 21 12.5 32.5t30.5 11.5q45 0 45 -46v-688q0 -21 -13 -33t-32 -12q-17 0 -30 12t-13 31v29q-16 -29 -43 -47q-38 -25 -92 -25 q-104 0 -170 75.5t-66 194.5q0 115 63 195t162 80q46 0 82.5 -19t61.5 -53z" />
<glyph unicode="e" horiz-adv-x="520" d="M25 271q0 107 61 184q67 84 174 84q104 0 171 -82q63 -77 63 -182q0 -19 -8 -29q-12 -14 -41 -14h-332q0 -79 48 -122q44 -40 114 -40q43 0 77.5 14t65.5 41q22 16 33 16t18 -6q13 -11 13 -31q0 -7 -2 -14t-11 -18q-30 -31 -83 -54.5t-116 -23.5q-126 0 -192 91 q-55 75 -55 181zM113 299h293q0 73 -38.5 118.5t-103.5 45.5q-68 0 -109.5 -43.5t-41.5 -120.5z" />
<glyph unicode="f" horiz-adv-x="240" d="M86 457h-37q-24 0 -33.5 11t-9.5 28q0 37 45 37h35v127q0 51 33 82t82 31q35 0 50 -5q28 -9 28 -36q0 -15 -11 -25t-34 -10h-27q-33 0 -33 -39v-125h56q21 0 31 -9t12 -26q0 -20 -9.5 -30.5t-33.5 -10.5h-56v-418q0 -20 -13.5 -32.5t-31.5 -12.5q-19 0 -31 11.5t-12 33.5 v418z" />
<glyph unicode="g" horiz-adv-x="557" d="M123 266q0 -85 37 -140.5t104 -55.5t109.5 50.5t42.5 139.5q0 81 -35 137q-41 66 -119 66q-68 0 -106 -63q-33 -55 -33 -134zM406 70q-21 -36 -57.5 -56t-86.5 -20q-100 0 -163.5 79t-63.5 197q0 120 65.5 194.5t170.5 74.5q55 0 91 -25q27 -19 42 -49l2 29q0 21 13 32 t30 11q20 0 32.5 -11t12.5 -34v-455q0 -112 -61 -181q-64 -73 -175 -73q-45 0 -88.5 13.5t-77.5 33.5q-22 14 -31.5 27.5t-11.5 27.5q6 31 35 37q15 -2 27.5 -6.5t31.5 -17.5q24 -17 54.5 -28t64.5 -11q77 0 114 69q30 56 30 142z" />
<glyph unicode="h" d="M59 727q0 22 13 34t30 12q19 0 31.5 -11.5t12.5 -34.5v-256l2 -2q22 31 60.5 50.5t82.5 19.5q81 0 135 -57.5t54 -139.5v-303q0 -21 -13 -33t-31 -12q-19 0 -31 11.5t-12 33.5v291q0 57 -33 95t-89 38q-52 0 -86 -32q-39 -36 -39 -99v-293q0 -21 -13 -33t-31 -12 q-19 0 -31 11.5t-12 33.5v688z" />
<glyph unicode="i" horiz-adv-x="203" d="M59 492q0 22 12.5 34.5t30.5 12.5q19 0 31.5 -11.5t12.5 -33.5v-455q0 -21 -13 -33t-31 -12q-19 0 -31 11.5t-12 33.5v453zM102 609q-23 0 -39 16t-16 39q0 22 16.5 38.5t38.5 16.5t38 -16t16 -39q0 -21 -16 -38t-38 -17z" />
<glyph unicode="j" horiz-adv-x="203" d="M59 492q0 22 12.5 34.5t30.5 12.5q19 0 31.5 -11.5t12.5 -33.5v-664q0 -22 -12.5 -34.5t-31.5 -12.5q-18 0 -30.5 12.5t-12.5 34.5v662zM102 609q-23 0 -39 16t-16 39q0 22 16.5 38.5t38.5 16.5t38 -16t16 -39q0 -21 -16 -38t-38 -17z" />
<glyph unicode="k" horiz-adv-x="443" d="M59 729q0 21 12.5 31.5t30.5 10.5q19 0 31.5 -10.5t12.5 -33.5v-377l206 173q8 7 17 10.5t18 3.5q16 0 26.5 -11.5t10.5 -29.5t-16 -31l-205 -162l235 -231q17 -17 17 -43q0 -15 -10 -25t-27 -10q-10 0 -22 5.5t-23 16.5l-227 236v-213q0 -21 -13 -33t-31 -12 q-19 0 -31 11.5t-12 33.5v690z" />
<glyph unicode="l" horiz-adv-x="203" d="M59 725q0 22 13 34t30 12q19 0 31.5 -11.5t12.5 -32.5v-686q0 -22 -12.5 -34.5t-31.5 -12.5q-18 0 -30.5 12.5t-12.5 34.5v684z" />
<glyph unicode="m" horiz-adv-x="832" d="M59 496q0 19 13 30t32 11q42 0 42 -45v-17q53 64 139 64q47 0 85 -26q34 -23 58 -64q35 49 77 69.5t91 20.5q76 0 128.5 -52.5t52.5 -140.5v-309q0 -20 -12.5 -31.5t-32.5 -11.5q-17 0 -30 12t-13 31v303q0 59 -31 91t-80 32q-50 0 -81 -27q-36 -32 -36 -96v-303 q0 -19 -13 -30t-32 -11q-17 0 -30 11t-13 30v299q0 65 -34 98q-30 29 -79 29q-48 0 -79 -27q-35 -31 -35 -90v-309q0 -20 -12.5 -31.5t-31.5 -11.5q-18 0 -30.5 11.5t-12.5 31.5v459z" />
<glyph unicode="n" d="M59 492q0 22 12.5 34.5t30.5 12.5t31 -12t13 -35v-21l2 -2q53 70 145 70q78 0 129 -49q58 -56 58 -154v-297q0 -21 -13 -32t-31 -11q-19 0 -31 10.5t-12 32.5v295q0 60 -36.5 93.5t-86.5 33.5q-52 0 -88 -33.5t-36 -95.5v-293q0 -22 -12 -34.5t-30 -12.5q-19 0 -32 13 t-13 34v453z" />
<glyph unicode="o" d="M123 266q0 -74 31 -128q39 -68 114 -68q72 0 112 59q36 54 36 137q0 84 -36 138q-40 59 -110 59q-69 0 -108 -55.5t-39 -141.5zM35 266q0 119 66 196t169 77q106 0 172 -82q62 -77 62 -191t-62 -191q-66 -81 -172 -81q-107 0 -173 81q-62 76 -62 191z" />
<glyph unicode="p" horiz-adv-x="557" d="M434 266q0 82 -32 135q-38 62 -107 62q-81 0 -121 -63q-33 -52 -33 -132q0 -91 40 -145.5t104 -54.5l8 2q67 0 104 55.5t37 140.5zM150 -170q0 -26 -11.5 -39.5t-31.5 -13.5q-18 0 -31 14t-13 37v664q0 22 12.5 34.5t29.5 12.5q19 0 32 -12t13 -33v-27q17 29 44 47 q38 25 91 25q105 0 170.5 -74.5t65.5 -194.5q0 -117 -62.5 -196.5t-163.5 -79.5q-45 0 -81.5 19.5t-61.5 52.5z" />
<glyph unicode="q" horiz-adv-x="557" d="M123 266q0 -85 36.5 -140.5t104.5 -55.5q66 0 108 51t42 141q0 81 -34 135q-42 66 -120 66q-67 0 -104 -62q-33 -55 -33 -135zM406 66h-4q-22 -33 -59 -52.5t-83 -19.5q-100 0 -163.5 79t-63.5 197q0 119 67 194t170 75q54 0 91 -24q29 -19 43 -48l2 27q0 21 13 33t30 12 q18 0 31.5 -12.5t13.5 -34.5v-664q0 -23 -13 -37t-34 -14q-17 0 -29 14t-12 39v236z" />
<glyph unicode="r" horiz-adv-x="314" d="M59 492q0 21 13 33t30 12q19 0 31.5 -11.5t12.5 -33.5v-45q22 35 50 60q36 32 70 32q20 0 35 -12.5t15 -32.5q0 -31 -38 -45q-31 -10 -61 -19q-38 -21 -54.5 -55t-16.5 -78v-258q0 -21 -12 -33t-30 -12t-31.5 12.5t-13.5 34.5v451z" />
<glyph unicode="s" horiz-adv-x="443" d="M47 53q-11 8 -16.5 18.5t-7.5 24.5q0 16 10.5 27.5t27.5 11.5q19 0 54 -25q24 -17 30 -20q16 -9 35 -14.5t39 -5.5q44 0 72 15q37 20 37 58q0 36 -41 60q-14 9 -111 49q-129 54 -129 139q0 62 49 105t125 43q49 0 94 -16t67 -37t22 -41q0 -15 -11 -26t-28 -13 q-4 1 -81 41q-31 16 -54 16q-49 0 -73 -19t-24 -48q9 -50 98 -83l76 -28q58 -24 84.5 -56.5t26.5 -78.5q0 -64 -48 -107q-54 -49 -149 -49q-49 0 -86 11q-49 14 -88 48z" />
<glyph unicode="t" horiz-adv-x="240" d="M86 457h-39q-19 0 -30 10.5t-13 26.5q2 18 12.5 28.5t30.5 10.5h39v119q0 20 12.5 30.5t30.5 10.5q19 0 32 -11t13 -32v-117h39q41 0 41 -39q0 -15 -10 -26t-27 -11h-43v-420q0 -20 -13.5 -31.5t-33.5 -11.5q-41 0 -41 45v418z" />
<glyph unicode="u" d="M59 494q0 21 13 33t30 12q19 0 31.5 -11.5t12.5 -33.5v-291q0 -62 30 -97.5t92 -35.5q72 0 103 46q22 33 22 87v291q0 21 13 33t30 12q19 0 31.5 -11.5t12.5 -33.5v-293q0 -87 -48 -142q-57 -65 -166 -65q-103 0 -158 62q-49 56 -49 145v293z" />
<glyph unicode="v" horiz-adv-x="426" d="M10 473l-8 31q0 20 11.5 31.5t29.5 11.5q35 0 47 -37l123 -375l125 375q9 31 41 31q17 0 30 -11t13 -30q0 -7 -4 -21l-158 -448q-8 -19 -18 -28t-29 -9t-28.5 8.5t-16.5 26.5z" />
<glyph unicode="w" horiz-adv-x="740" d="M4 479l-4 19q0 18 12.5 28.5t30.5 10.5q38 0 47 -31l117 -375l2 -2l117 373q13 41 45 41q33 0 45 -41l119 -371l117 369q6 19 19 29t28 10q18 0 29.5 -11.5t11.5 -31.5q0 -7 -4 -21l-150 -438q-8 -22 -18.5 -32.5t-30.5 -10.5q-19 0 -30.5 10.5t-20.5 38.5l-113 355 l-113 -347q-10 -34 -22.5 -45.5t-32.5 -11.5q-19 0 -31 11.5t-22 41.5z" />
<glyph unicode="x" horiz-adv-x="463" d="M182 281l-141 184q-7 9 -10.5 17.5t-5.5 19.5q0 16 11.5 26.5t27.5 10.5q23 0 38 -19l130 -174l129 172q7 11 17.5 16t19.5 5q15 0 26.5 -11.5t11.5 -29.5q0 -16 -12 -31l-141 -186l160 -209q18 -23 18 -49q0 -15 -10 -25t-27 -10q-26 0 -47 30l-145 201l-146 -203 q-17 -22 -43 -22q-15 0 -27 11t-12 28q3 21 17 41z" />
<glyph unicode="y" horiz-adv-x="426" d="M180 20l-159 455l-5 23q0 18 11.5 28.5t29.5 10.5q15 0 28 -8.5t17 -22.5l121 -365l123 367q9 31 41 31q17 0 29 -11t12 -32l-4 -21l-231 -657q-5 -19 -18 -29t-30 -10q-15 0 -25.5 10.5t-10.5 30.5l6 28z" />
<glyph unicode="z" horiz-adv-x="443" d="M70 533h301q41 0 41 -31q0 -17 -17 -45l-258 -381h246q43 0 43 -39q0 -15 -11.5 -26t-31.5 -11h-320q-23 0 -34.5 4t-12.5 21q2 13 7 25t16 28l254 379h-225q-14 0 -23 6q-16 10 -18 31q2 18 12.5 28.5t30.5 10.5z" />
<glyph unicode="{" horiz-adv-x="258" d="M66 320v-4q51 0 74 -44q18 -34 18 -92v-147q0 -42 26 -51q7 -3 39.5 -5.5t32.5 -29.5q0 -14 -11.5 -21.5t-27.5 -7.5h-43q-45 0 -71.5 28.5t-26.5 73.5v154q0 54 -11.5 77t-46 32.5t-34.5 34.5q0 27 34.5 35.5t46 32.5t11.5 77v154q0 45 26.5 73.5t71.5 28.5h43 q16 0 27.5 -7.5t11.5 -23.5q0 -27 -32 -29t-40 -5q-26 -9 -26 -50v-147q0 -59 -17 -92q-23 -45 -75 -45z" />
<glyph unicode="|" horiz-adv-x="223" d="M70 734q0 19 12 28t29 9q18 0 29.5 -9.5t11.5 -29.5v-699q0 -18 -11.5 -28.5t-29.5 -10.5q-17 0 -29 11t-12 30v699z" />
<glyph unicode="}" horiz-adv-x="258" d="M174 316v4q-49 0 -73 44q-19 36 -19 93v147q0 41 -25 50q-7 3 -40 5t-33 30q0 14 12.5 22t26.5 8h45q44 0 70 -29t26 -73l2 -154q0 -54 10.5 -77.5t45 -32.5t34.5 -37q0 -24 -34.5 -33t-45 -32t-10.5 -77l-2 -154q0 -43 -26.5 -72.5t-69.5 -29.5h-45q-17 0 -28 6.5 t-11 22.5q0 25 25 28.5t48 6.5q25 9 25 51v147q0 57 19 92q24 44 73 44z" />
<glyph unicode="~" horiz-adv-x="600" d="M64 211q0 42 41.5 77.5t87.5 35.5q34 0 64 -9q21 -6 56 -24q28 -15 51 -24t40 -9q20 0 37 20q40 46 61 46q15 0 25 -8t10 -19q0 -44 -41 -79.5t-90 -35.5q-27 0 -52.5 6t-64.5 27q-25 12 -49 24q-26 11 -43 11q-16 0 -56 -46q-19 -22 -41 -22q-16 0 -26 8t-10 21z" />
<glyph unicode="&#xa1;" horiz-adv-x="277" d="M104 297q0 20 12.5 31.5t29.5 11.5q45 0 45 -45v-438q0 -21 -13 -32t-32 -11q-18 0 -30 10.5t-12 32.5v440zM148 537q21 0 36 -14t15 -37q0 -20 -15 -35t-36 -15t-36.5 14.5t-15.5 35.5q0 23 15 37t37 14z" />
<glyph unicode="&#xa2;" horiz-adv-x="443" d="M227 455q-52 -20 -78 -70.5t-26 -111.5t21 -110q27 -64 83 -85v377zM270 70q31 0 49 6q25 11 38.5 17.5t23.5 6.5q15 0 24 -10t9 -27q0 -39 -56 -57q-38 -12 -88 -12v-55q0 -19 -24 -19q-19 0 -19 21v57q-99 20 -149 105q-43 74 -43 180q0 100 53.5 168t138.5 84v59 q0 19 19 19q24 0 24 -21v-55q49 0 88 -11q60 -17 60 -55q0 -15 -11 -25.5t-28 -11.5q-27 9 -57.5 19t-51.5 10v-393z" />
<glyph unicode="&#xa3;" horiz-adv-x="594" d="M174 316h-104q-19 0 -30 11.5t-13 27.5q0 18 11.5 30.5t31.5 12.5h80q-50 83 -50 143q0 80 72 131q66 47 152 47q84 0 153 -57q63 -53 70 -113q0 -26 -13 -36q-6 -4 -34 -15q-15 1 -23 10.5t-20 34.5q-25 49 -47 67q-33 27 -96 27q-52 0 -86 -26q-39 -30 -39 -84 q0 -33 24 -78q19 -33 29 -51h133q18 0 28.5 -11.5t10.5 -29.5q0 -16 -10.5 -28.5t-28.5 -12.5h-113q6 -26 6 -58q0 -44 -19 -86.5t-65 -89.5h339q20 0 30.5 -11.5t10.5 -29.5q0 -16 -10.5 -28.5t-30.5 -12.5h-414q-18 0 -29.5 9.5t-13.5 25.5q2 14 6.5 24t17.5 23 q44 42 63 72q29 46 29 100q0 17 -3 34.5t-5 27.5z" />
<glyph unicode="&#xa4;" d="M270 184q65 0 114.5 47.5t49.5 125.5q0 74 -47 123t-117 49q-65 0 -113 -42q-55 -48 -55 -130q0 -70 43 -119q47 -54 125 -54zM68 506l-37 39q-9 10 -11 23q0 15 10.5 25.5t24.5 10.5t19 -8l43 -45q28 26 67 39.5t86 13.5q44 0 83 -13.5t65 -39.5l45 45q8 8 19 8 q13 0 22.5 -11.5t9.5 -26.5q0 -13 -8 -21l-39 -39q21 -24 35 -65.5t14 -85.5q0 -42 -12 -80.5t-37 -67.5l39 -39q10 -10 10 -25q0 -13 -11 -23.5t-25 -12.5q-13 4 -17 8l-45 47q-58 -55 -150 -55q-91 0 -149 55l-45 -43q-9 -9 -21 -12q-12 0 -21 11t-11 27q4 17 10 23l37 39 q-24 29 -36 68t-12 79q0 44 13 84.5t35 67.5z" />
<glyph unicode="&#xa5;" d="M225 262v70h-139q-19 0 -30 9.5t-13 23.5q2 14 12.5 23.5t28.5 9.5h100l-166 254q-5 8 -7 13.5t-5 18.5q0 14 10.5 24.5t26.5 10.5q26 0 45 -28l180 -269l177 266q21 31 49 31q33 0 33 -35q0 -10 -9 -32l-164 -254h97q39 0 39 -33t-39 -33h-138v-70h138q18 0 28.5 -9.5 t10.5 -23.5t-10.5 -24t-30.5 -10h-136v-156q0 -20 -13.5 -32.5t-31.5 -12.5q-19 0 -31 11.5t-12 33.5v156h-141q-17 0 -27 9.5t-12 22.5q2 17 11 26t28 9h141z" />
<glyph unicode="&#xa6;" horiz-adv-x="156" d="M78 725q0 20 10.5 30.5t26.5 10.5q35 0 35 -34v-709q0 -35 -37 -35q-14 0 -24.5 9.5t-10.5 25.5v702z" />
<glyph unicode="&#xa7;" horiz-adv-x="557" d="M150 441q-31 19 -48.5 50.5t-17.5 65.5q0 67 53 112q59 50 162 50q88 0 146 -48q52 -43 57 -99q0 -52 -41 -52q-30 0 -45 39q-19 48 -51 66t-84 18q-46 0 -77.5 -25t-31.5 -59q2 -16 8.5 -29.5t20.5 -25.5q33 -28 129.5 -72t134.5 -76q62 -53 62 -129q0 -49 -27 -93.5 t-80 -76.5q31 -22 47.5 -52.5t16.5 -63.5q0 -63 -51 -108q-57 -50 -154 -50q-80 0 -148.5 39t-79.5 94q-2 12 -2 16q0 21 12 34t29 13q33 -3 47 -34q24 -47 54.5 -66.5t85.5 -19.5q56 0 87 23t31 57q0 20 -12.5 40t-36.5 33q-14 8 -133 59q-89 38 -129 74q-59 53 -59 126 q0 52 32 97.5t93 72.5zM227 395q-51 -18 -81.5 -49.5t-30.5 -68.5q0 -61 94 -107l145 -72q87 61 87 131q0 68 -82 105z" />
<glyph unicode="&#xa8;" horiz-adv-x="203" d="M-45 658q0 23 16 39t39 16q21 0 37 -16t16 -39q0 -22 -15.5 -37.5t-37.5 -15.5q-23 0 -39 15t-16 38zM141 658q0 23 15 39t39 16q23 0 39 -16t16 -39q0 -22 -16.5 -37.5t-38.5 -15.5q-24 0 -39 15t-15 38z" />
<glyph unicode="&#xa9;" horiz-adv-x="801" d="M271 357q0 -64 36 -109t95 -45q62 0 97 46t50 46q18 0 25.5 -7.5t7.5 -19.5q0 -36 -44 -78q-55 -53 -136 -53q-93 0 -153 63t-60 157q0 97 58 160t155 63q83 0 137 -50q43 -40 43 -77q0 -13 -9 -21t-24 -8q-20 0 -53 45t-94 45q-63 0 -97 -43t-34 -114zM400 68 q116 0 198 84t82 203q0 120 -82 204t-198 84t-198.5 -84.5t-82.5 -203.5t82 -203t199 -84zM400 -6q-149 0 -256 106t-107 255q0 150 107 257t256 107q150 0 257 -107t107 -257q0 -149 -107 -255t-257 -106z" />
<glyph unicode="&#xaa;" horiz-adv-x="361" d="M29 557q0 66 43 114t108 48q27 0 48 -9.5t36 -31.5l2 -2v17q0 26 33 26q13 0 23 -7t10 -19v-275q0 -13 -10 -20t-23 -7q-33 0 -33 25v18q-17 -22 -36.5 -32.5t-53.5 -10.5q-65 0 -106 47t-41 119zM184 658q-36 0 -59 -30t-23 -73q0 -44 22.5 -74t59.5 -30t60.5 29.5 t23.5 74.5q0 42 -24.5 72.5t-59.5 30.5z" />
<glyph unicode="&#xab;" horiz-adv-x="389" d="M37 268l100 179q6 14 15.5 20t19.5 6q13 0 25 -11t12 -24q0 -12 -10 -32l-82 -138l86 -143q8 -20 8 -27q0 -16 -12 -24t-29 -11q-21 0 -31 25zM195 268l100 179q7 13 16.5 19.5t20.5 6.5q12 0 24.5 -10.5t12.5 -23.5q0 -12 -12 -33l-82 -138l86 -143q4 -6 6 -14.5 t2 -14.5q0 -15 -11.5 -22.5t-27.5 -10.5q-19 0 -33 25z" />
<glyph unicode="&#xac;" horiz-adv-x="600" d="M471 316h-385q-18 0 -28.5 11.5t-12.5 29.5q4 41 39 41h428q41 0 41 -43v-209q0 -18 -11.5 -27.5t-29.5 -11.5q-18 2 -29.5 11.5t-11.5 29.5v168z" />
<glyph unicode="&#xae;" horiz-adv-x="801" d="M381 320h-65v-144q0 -15 -9 -23t-24 -8q-16 0 -23.5 10t-7.5 21v363q0 20 21 20h133q78 0 114.5 -27t36.5 -93q0 -56 -29 -84q-25 -24 -73 -31l90 -138q8 -13 8 -24q0 -10 -14 -14q-5 -1 -23 -3q-26 0 -39 23zM316 381h77q48 0 68 9q31 14 31 53q0 33 -31 46q-22 9 -63 9 h-82v-117zM400 -6q-150 0 -256.5 105.5t-106.5 255.5q0 152 106 258t257 106q150 0 256 -106t106 -258q0 -149 -106 -255t-256 -106zM400 70q115 0 198.5 83.5t83.5 201.5q0 120 -83 204t-199 84q-114 0 -197.5 -84.5t-83.5 -203.5q0 -118 82.5 -201.5t198.5 -83.5z" />
<glyph unicode="&#xb1;" horiz-adv-x="600" d="M260 354v109q0 20 11.5 31.5t27.5 11.5q19 0 31 -10.5t12 -32.5v-109h174q16 0 26.5 -12.5t10.5 -30.5q0 -16 -11 -28t-28 -12h-172v-111q0 -20 -11.5 -30.5t-29.5 -12.5q-18 2 -29.5 12.5t-11.5 30.5v111h-170q-21 0 -33 11.5t-14 30.5q2 17 14 29t33 12h170zM516 0 h-426q-21 0 -32 12t-13 29q2 18 13 29.5t32 11.5h426q19 0 30 -12t11 -31q0 -16 -10.5 -27.5t-30.5 -11.5z" />
<glyph unicode="&#xb2;" horiz-adv-x="348" d="M131 352h152q35 0 35 -32q0 -29 -35 -29h-222q-13 0 -21.5 5.5t-10.5 14.5q4 12 8 19l178 223q11 14 18 27t7 27q0 24 -19.5 37.5t-44.5 13.5q-36 0 -60 -26.5t-24 -55.5q0 -21 -31 -25q-14 2 -22 10t-8 25q0 55 38 92q42 41 111 41q64 0 98.5 -31t34.5 -77 q0 -43 -38 -84z" />
<glyph unicode="&#xb3;" horiz-adv-x="348" d="M43 623q9 96 129 96q57 0 89 -33t32 -79q0 -60 -53 -89q39 -12 58.5 -38.5t19.5 -63.5q0 -60 -49 -97q-45 -34 -109 -34q-50 0 -83 23.5t-44 62.5l-4 18q2 13 9 23t19 10q18 0 27 -20q22 -45 55 -52l25 -4q33 0 57.5 19.5t24.5 46.5q1 8 1 11q0 29 -16 45t-55 16 q-24 0 -33.5 6.5t-9.5 19.5q0 12 8 18.5t28.5 11.5t35.5 19q21 20 18 50q0 23 -19 36t-44 13t-43.5 -12.5t-18.5 -34.5q0 -10 -9 -17.5t-21 -9.5q-25 3 -25 39z" />
<glyph unicode="&#xb4;" horiz-adv-x="203" d="M234 848l118 48q7 4 23 4q15 0 28 -12t13 -27q0 -24 -33 -37l-117 -49q-13 -5 -30 -5q-16 0 -27.5 10t-13.5 25q2 13 11 24.5t28 18.5z" />
<glyph unicode="&#xb5;" d="M59 494q0 21 13 33t30 12q19 0 31.5 -11.5t12.5 -33.5v-283q0 -73 23 -103q29 -38 112 -38q75 0 100 56q12 27 12 83v285q0 21 13 33t30 12q19 0 31.5 -11.5t12.5 -33.5v-451q0 -24 -12.5 -36.5t-31.5 -12.5q-15 0 -27 8t-14 21q-21 -11 -55.5 -20t-69.5 -9 q-39 0 -72 11.5t-52 35.5v-213q0 -21 -13 -32t-31 -11t-30.5 10.5t-12.5 30.5v668z" />
<glyph unicode="&#xb6;" horiz-adv-x="600" d="M242 344q-88 0 -148 46q-67 51 -67 143q0 82 67 131t174 49h207q22 0 34 -14t12 -37v-838q0 -19 -12 -29t-29 -10q-16 0 -28.5 9.5t-12.5 27.5v824h-115v-826q0 -17 -12 -27t-29 -10q-16 0 -28.5 10.5t-12.5 28.5v522z" />
<glyph unicode="&#xb7;" horiz-adv-x="240" d="M70 303q0 24 16 39t39 15q22 0 38.5 -15.5t16.5 -38.5t-16 -38t-39 -15q-22 0 -38.5 15.5t-16.5 37.5z" />
<glyph unicode="&#xb8;" horiz-adv-x="203" d="M184 0l-30 -43l22 4q27 0 47.5 -15.5t20.5 -39.5q0 -43 -30.5 -64.5t-80.5 -21.5q-32 0 -52 9.5t-20 25.5q0 11 4.5 19.5t14.5 8.5q7 0 25 -5t28 -5q35 0 35 27q0 13 -10 16.5t-35 3.5q-26 0 -29 17l10 26l27 37h53z" />
<glyph unicode="&#xb9;" horiz-adv-x="229" d="M88 652h-53q-12 0 -19.5 8.5t-9.5 21.5q4 31 29 31h106q17 0 17 -14v-383q0 -14 -9.5 -21.5t-25.5 -9.5q-14 2 -24.5 9.5t-10.5 21.5v336z" />
<glyph unicode="&#xba;" horiz-adv-x="348" d="M176 451q34 0 57 30t23 74q0 43 -23 73t-57 30q-36 0 -59 -29t-23 -74q0 -43 23.5 -73.5t58.5 -30.5zM176 391q-69 0 -111 47t-42 117t41 117t112 47q68 0 110 -47t42 -117t-41 -117t-111 -47z" />
<glyph unicode="&#xbb;" horiz-adv-x="389" d="M369 268l-99 -180q-14 -25 -36 -25q-19 3 -27.5 9t-11.5 24q4 20 10 29l86 143l-84 138q-8 16 -12 32q2 14 12.5 24.5t24.5 10.5q12 0 21.5 -6t16.5 -20zM211 268l-102 -180q-10 -25 -33 -25q-19 3 -27.5 9t-11.5 24q4 20 10 29l86 143l-84 138q-8 16 -12 32 q2 14 12.5 24.5t24.5 10.5q12 0 21 -5.5t16 -20.5z" />
<glyph unicode="&#xbc;" horiz-adv-x="805" d="M195 41l274 658q11 28 35 28q13 0 23 -8t10 -22q0 -11 -5 -24t-7 -19l-267 -638q-7 -17 -16 -23.5t-21 -6.5q-31 0 -35 26q2 11 3.5 16t5.5 13zM115 652h-51q-13 0 -20 8t-9 22q2 14 8.5 22.5t19.5 8.5h105q20 0 20 -14v-383q0 -14 -10.5 -21.5t-27.5 -9.5 q-14 2 -24.5 9.5t-10.5 21.5v336zM646 98h-179q-8 0 -14.5 5t-7.5 16q2 8 6 18t10 19l160 242q9 15 23 22.5t28 7.5q20 0 33.5 -10.5t13.5 -28.5v-233h23q13 0 20.5 -7.5t7.5 -21.5q0 -12 -7.5 -20.5t-18.5 -8.5h-25v-75q0 -14 -9.5 -21.5t-25.5 -7.5q-15 0 -26.5 8.5 t-11.5 22.5v73zM646 156v199l-117 -199h117z" />
<glyph unicode="&#xbd;" horiz-adv-x="805" d="M115 652h-51q-14 0 -21.5 8.5t-9.5 21.5q2 14 9.5 22.5t20.5 8.5h105q20 0 20 -14v-383q0 -14 -10.5 -21.5t-27.5 -9.5q-14 2 -24.5 9.5t-10.5 21.5v336zM164 41l274 658q10 28 35 28q13 0 23 -8t10 -22q0 -11 -5 -24t-7 -19l-267 -638q-7 -17 -16.5 -23.5t-21.5 -6.5 q-29 0 -35 26q1 8 4 15zM553 61h154q33 0 33 -32q0 -29 -35 -29h-221q-28 0 -31 20l8 17l176 225q9 13 17 27.5t8 26.5q0 24 -18.5 37.5t-43.5 13.5q-37 0 -61.5 -26.5t-24.5 -55.5q0 -22 -30 -25q-13 2 -21 10t-8 25q0 55 37 92q41 41 112 41q62 0 96 -32t34 -78 q0 -40 -35 -84z" />
<glyph unicode="&#xbe;" horiz-adv-x="805" d="M646 156v199l-117 -199h117zM646 98h-179q-8 0 -14.5 5t-7.5 16q2 8 6 18t10 19l160 242q9 15 23 22.5t28 7.5q20 0 33.5 -10.5t13.5 -28.5v-233h25q13 0 19.5 -7.5t6.5 -21.5q0 -29 -24 -29h-27v-75q0 -14 -9.5 -21.5t-25.5 -7.5q-15 0 -26.5 8.5t-11.5 22.5v73zM256 41 l273 658q11 28 35 28q14 0 24 -8t10 -22q0 -11 -5 -24t-7 -19l-268 -638q-6 -17 -15 -23.5t-22 -6.5q-27 0 -33 26q3 19 8 29zM57 623q9 96 129 96q57 0 89 -33t32 -79q0 -27 -13.5 -50t-41.5 -39q39 -12 58.5 -39.5t19.5 -64.5q0 -60 -48 -96q-44 -33 -108 -33 q-50 0 -83 23.5t-44 62.5l-4 18q2 14 8 23.5t19 9.5q19 0 28 -20q17 -44 54 -52l26 -4q32 0 55.5 19.5t26.5 46.5q0 35 -13 51q-17 21 -58 21q-24 0 -33.5 6.5t-9.5 19.5q0 12 8.5 18.5t29 11.5t32.5 16q19 17 19 43q-1 6 -1 10q0 24 -17.5 36.5t-42.5 12.5t-45 -12.5 t-20 -34.5q0 -23 -27 -27q-25 3 -25 39z" />
<glyph unicode="&#xbf;" horiz-adv-x="443" d="M230 537q21 0 36 -14t15 -37q0 -20 -15 -35t-36 -15t-35.5 14.5t-14.5 35.5q0 23 14 37t36 14zM273 297v-131q0 -35 -39 -45l-48 -12q-29 -9 -48 -29q-27 -29 -27 -72q2 -8 2 -24q7 -39 36 -63.5t83 -24.5q40 0 68.5 19.5t40 57t40.5 37.5q19 0 31 -12t12 -33 q0 -66 -68 -111q-60 -40 -131 -40q-78 0 -138 43q-69 50 -69 133q0 167 168 203v104q0 21 12 32t29 11q19 0 32.5 -11.5t13.5 -31.5z" />
<glyph unicode="&#xc0;" horiz-adv-x="611" d="M168 230h277l-138 387zM141 154l-47 -129q-9 -31 -45 -31q-38 0 -41 35l6 24l230 615q9 25 25 39t36 14q43 0 62 -51l233 -617q4 -16 4 -26q0 -35 -41 -35q-16 0 -28 7.5t-17 25.5l-47 129h-330zM223 824q-15 6 -22.5 16t-9.5 21q0 17 13 29t30 12q12 0 16 -2l133 -56 q16 -6 24.5 -16.5t8.5 -22.5q0 -16 -11.5 -26.5t-31.5 -10.5l-23 5z" />
<glyph unicode="&#xc1;" horiz-adv-x="611" d="M168 230h277l-138 387zM141 154l-47 -129q-9 -31 -45 -31q-38 0 -41 35l6 24l230 615q9 25 25 39t36 14q43 0 62 -51l233 -617q4 -16 4 -26q0 -35 -41 -35q-16 0 -28 7.5t-17 25.5l-47 129h-330zM232 846l118 48q7 4 23 4q15 0 28 -12t13 -27q0 -24 -33 -37l-117 -49 q-13 -5 -30 -5q-16 0 -27.5 10t-13.5 25q2 13 11 24.5t28 18.5z" />
<glyph unicode="&#xc2;" horiz-adv-x="611" d="M168 230h277l-138 387zM141 154l-47 -129q-9 -31 -45 -31q-38 0 -41 35l6 24l230 615q9 25 25 39t36 14q43 0 62 -51l233 -617q4 -16 4 -26q0 -35 -41 -35q-16 0 -28 7.5t-17 25.5l-47 129h-330zM303 896l130 -56q13 -4 19.5 -15t6.5 -24q0 -15 -9.5 -25.5t-27.5 -10.5 l-24 6l-95 39l-94 -37l-29 -8q-15 0 -24.5 10.5t-9.5 25.5q0 30 24 39z" />
<glyph unicode="&#xc3;" horiz-adv-x="611" d="M168 230h277l-138 387zM141 154l-47 -129q-9 -31 -45 -31q-38 0 -41 35l6 24l230 615q9 25 25 39t36 14q43 0 62 -51l233 -617q4 -16 4 -26q0 -35 -41 -35q-16 0 -28 7.5t-17 25.5l-47 129h-330zM168 848q13 14 35 21.5t43 7.5q18 0 41 -5q67 -15 68 -15q32 10 65 20 q14 0 23.5 -11.5t9.5 -25.5q0 -32 -34 -50q-28 -15 -62 -15l-9 2q-15 0 -47 9t-49 9q-14 0 -30.5 -7t-32.5 -13q-17 8 -22 13q-9 9 -9 26q0 21 10 34z" />
<glyph unicode="&#xc4;" horiz-adv-x="611" d="M168 230h277l-138 387zM141 154l-47 -129q-9 -31 -45 -31q-38 0 -41 35l6 24l230 615q9 25 25 39t36 14q43 0 62 -51l233 -617q4 -16 4 -26q0 -35 -41 -35q-16 0 -28 7.5t-17 25.5l-47 129h-330zM160 818q0 23 16 39t39 16q21 0 37 -16t16 -39q0 -22 -15.5 -37.5 t-37.5 -15.5q-23 0 -39 15t-16 38zM346 818q0 23 15 39t39 16q23 0 39 -16t16 -39q0 -22 -16.5 -37.5t-38.5 -15.5q-24 0 -39 15t-15 38z" />
<glyph unicode="&#xc5;" horiz-adv-x="611" d="M168 230h277l-138 387zM141 154l-47 -129q-9 -31 -45 -31q-38 0 -41 35l6 24l230 615q9 25 25 39t36 14q43 0 62 -51l233 -617q4 -16 4 -26q0 -35 -41 -35q-16 0 -28 7.5t-17 25.5l-47 129h-330zM303 785q19 0 32.5 12.5t13.5 32.5q0 19 -13 33t-33 14q-19 0 -32 -14 t-13 -33q0 -20 12.5 -32.5t32.5 -12.5zM303 736q-38 0 -66 28t-28 66q0 39 28 67t66 28q39 0 67 -28t28 -67q0 -38 -28 -66t-67 -28z" />
<glyph unicode="&#xc6;" horiz-adv-x="740" d="M316 678q10 17 21.5 26t35.5 9h293q20 0 30.5 -11.5t10.5 -29.5t-10.5 -29.5t-32.5 -11.5h-203v-233h197q19 0 29 -13t10 -31q0 -16 -11 -28t-30 -12h-195v-232h215q20 0 31.5 -11.5t11.5 -31.5q0 -16 -11.5 -27.5t-33.5 -11.5h-254q-25 0 -36 13t-11 36v105h-230 l-73 -138q-9 -22 -39 -22q-17 0 -28 8t-11 25q0 12 8 32zM180 230h193v381z" />
<glyph unicode="&#xc7;" horiz-adv-x="594" d="M307 -4q-138 15 -214 133q-62 96 -62 217q0 158 78 260q86 113 237 113q57 0 111.5 -19.5t85.5 -56.5q12 -15 12 -34q0 -15 -10 -25t-27 -12q-6 1 -11.5 2.5t-10.5 5.5q-28 20 -56 41q-37 22 -88 22q-114 0 -176 -96q-51 -79 -51 -184q0 -103 41 -183q57 -110 172 -110 q41 0 74 9.5t94 45.5q9 5 16.5 6.5t12.5 1.5q17 0 25 -10.5t8 -28.5q0 -23 -13 -33q-37 -34 -94 -52q-49 -15 -102 -15l-25 -37l21 4q28 0 48.5 -15.5t20.5 -39.5q0 -43 -30.5 -64.5t-80.5 -21.5q-33 0 -53 9.5t-20 25.5q0 10 5.5 19t16.5 9q5 0 23 -5t28 -5q35 0 35 27 q0 19 -36 20t-39 19q2 8 10 24z" />
<glyph unicode="&#xc8;" horiz-adv-x="443" d="M59 664q0 23 11 36t26 13h269q17 0 27 -12t10 -29q0 -13 -5 -22q-10 -19 -34 -19h-217v-235h198q18 0 28.5 -11.5t10.5 -29.5q0 -17 -11 -29t-30 -12h-196v-232h219q17 0 27 -12t10 -31q0 -16 -10.5 -27.5t-32.5 -11.5h-257q-28 0 -38 21q-5 11 -5 26v617zM146 824 q-15 6 -22.5 16t-9.5 21q0 17 13 29t30 12q12 0 16 -2l133 -56q16 -6 24.5 -16.5t8.5 -22.5q0 -16 -11.5 -26.5t-31.5 -10.5l-23 5z" />
<glyph unicode="&#xc9;" horiz-adv-x="443" d="M59 664q0 23 11 36t26 13h269q17 0 27 -12t10 -29q0 -13 -5 -22q-10 -19 -34 -19h-217v-235h198q18 0 28.5 -11.5t10.5 -29.5q0 -17 -11 -29t-30 -12h-196v-232h219q17 0 27 -12t10 -31q0 -16 -10.5 -27.5t-32.5 -11.5h-257q-28 0 -38 21q-5 11 -5 26v617zM147 846 l118 48q7 4 23 4q15 0 28 -12t13 -27q0 -24 -33 -37l-117 -49q-13 -5 -30 -5q-16 0 -27.5 10t-13.5 25q2 13 11 24.5t28 18.5z" />
<glyph unicode="&#xca;" horiz-adv-x="443" d="M59 664q0 23 11 36t26 13h269q17 0 27 -12t10 -29q0 -13 -5 -22q-10 -19 -34 -19h-217v-235h198q18 0 28.5 -11.5t10.5 -29.5q0 -17 -11 -29t-30 -12h-196v-232h219q17 0 27 -12t10 -31q0 -16 -10.5 -27.5t-32.5 -11.5h-257q-28 0 -38 21q-5 11 -5 26v617zM224 896 l130 -56q13 -4 19.5 -15t6.5 -24q0 -15 -9.5 -25.5t-27.5 -10.5l-24 6l-95 39l-94 -37l-29 -8q-15 0 -24.5 10.5t-9.5 25.5q0 30 24 39z" />
<glyph unicode="&#xcb;" horiz-adv-x="443" d="M59 664q0 23 11 36t26 13h269q17 0 27 -12t10 -29q0 -13 -5 -22q-10 -19 -34 -19h-217v-235h198q18 0 28.5 -11.5t10.5 -29.5q0 -17 -11 -29t-30 -12h-196v-232h219q17 0 27 -12t10 -31q0 -16 -10.5 -27.5t-32.5 -11.5h-257q-28 0 -38 21q-5 11 -5 26v617zM77 816 q0 23 16 39t39 16q21 0 37 -16t16 -39q0 -22 -15.5 -37.5t-37.5 -15.5q-23 0 -39 15t-16 38zM263 816q0 23 15 39t39 16q23 0 39 -16t16 -39q0 -22 -16.5 -37.5t-38.5 -15.5q-24 0 -39 15t-15 38z" />
<glyph unicode="&#xcc;" horiz-adv-x="203" d="M59 672q0 24 12.5 35.5t32.5 11.5q17 0 29.5 -11.5t12.5 -35.5v-629q0 -28 -16 -40q-12 -9 -26 -9q-17 0 -28 8q-17 12 -17 39v631zM91 818q-15 6 -22.5 16t-9.5 21q0 17 13 29t30 12q12 0 16 -2l133 -56q16 -6 24.5 -16.5t8.5 -22.5q0 -16 -11.5 -26.5t-31.5 -10.5 l-23 5z" />
<glyph unicode="&#xcd;" horiz-adv-x="203" d="M59 672q0 24 12.5 35.5t32.5 11.5q17 0 29.5 -11.5t12.5 -35.5v-629q0 -28 -16 -40q-12 -9 -26 -9q-17 0 -28 8q-17 12 -17 39v631zM98 844l118 48q7 4 23 4q15 0 28 -12t13 -27q0 -24 -33 -37l-117 -49q-13 -5 -30 -5q-16 0 -27.5 10t-13.5 25q2 13 11 24.5t28 18.5z " />
<glyph unicode="&#xce;" horiz-adv-x="203" d="M59 672q0 24 12.5 35.5t32.5 11.5q17 0 29.5 -11.5t12.5 -35.5v-629q0 -28 -16 -40q-12 -9 -26 -9q-17 0 -28 8q-17 12 -17 39v631zM216 896l130 -56q13 -4 19.5 -15t6.5 -24q0 -15 -9.5 -25.5t-27.5 -10.5l-24 6l-95 39l-94 -37l-29 -8q-15 0 -24.5 10.5t-9.5 25.5 q0 30 24 39z" />
<glyph unicode="&#xcf;" horiz-adv-x="203" d="M59 672q0 24 12.5 35.5t32.5 11.5q17 0 29.5 -11.5t12.5 -35.5v-629q0 -28 -16 -40q-12 -9 -26 -9q-17 0 -28 8q-17 12 -17 39v631zM59 818q0 23 16 39t39 16q21 0 37 -16t16 -39q0 -22 -15.5 -37.5t-37.5 -15.5q-23 0 -39 15t-16 38zM245 818q0 23 15 39t39 16 q23 0 39 -16t16 -39q0 -22 -16.5 -37.5t-38.5 -15.5q-24 0 -39 15t-15 38z" />
<glyph unicode="&#xd0;" horiz-adv-x="631" d="M150 637v-241h123q20 0 30.5 -10.5t10.5 -26.5q0 -37 -41 -37h-123v-246h137q77 0 134 50q85 75 85 239q0 127 -62.5 199.5t-168.5 72.5h-125zM63 666q0 23 12 35t34 12h180q144 0 230 -105q81 -99 81 -249q0 -161 -77 -257q-82 -102 -226 -102h-188q-25 0 -35.5 13 t-10.5 26v283h-42q-18 0 -28.5 10.5t-10.5 26.5q0 37 41 37h40v270z" />
<glyph unicode="&#xd1;" horiz-adv-x="666" d="M59 674q0 47 37 47q30 0 50 -30l374 -537l1 518q0 22 12.5 34.5t30.5 12.5t31.5 -12.5t13.5 -34.5v-635q0 -21 -11 -33t-28 -12q-27 0 -49 28l-373 537l-2 2v-522q0 -21 -13 -32t-31 -11q-19 0 -31 11t-12 34v635zM197 848q13 14 35 21.5t43 7.5q18 0 41 -5 q67 -15 68 -15q32 10 65 20q14 0 23.5 -11.5t9.5 -25.5q0 -32 -34 -50q-28 -15 -62 -15l-9 2q-15 0 -47 9t-49 9q-14 0 -30.5 -7t-32.5 -13q-17 8 -22 13q-9 9 -9 26q0 21 10 34z" />
<glyph unicode="&#xd2;" horiz-adv-x="684" d="M31 355q0 150 81 253q88 111 232 111t231 -109q81 -102 81 -255q0 -151 -82 -253q-87 -108 -230 -108q-134 0 -222 99q-91 102 -91 262zM125 357q0 -109 43 -185q58 -102 176 -102q94 0 154 71q65 77 65 216q0 138 -64 215q-59 71 -155 71q-95 0 -155 -73 q-64 -78 -64 -213zM264 826q-15 6 -22.5 16t-9.5 21q0 17 13 29t30 12q12 0 16 -2l133 -56q16 -6 24.5 -16.5t8.5 -22.5q0 -16 -11.5 -26.5t-31.5 -10.5l-23 5z" />
<glyph unicode="&#xd3;" horiz-adv-x="684" d="M31 355q0 150 81 253q88 111 232 111t231 -109q81 -102 81 -255q0 -151 -82 -253q-87 -108 -230 -108q-134 0 -222 99q-91 102 -91 262zM125 357q0 -109 43 -185q58 -102 176 -102q94 0 154 71q65 77 65 216q0 138 -64 215q-59 71 -155 71q-95 0 -155 -73 q-64 -78 -64 -213zM271 846l118 48q7 4 23 4q15 0 28 -12t13 -27q0 -24 -33 -37l-117 -49q-13 -5 -30 -5q-16 0 -27.5 10t-13.5 25q2 13 11 24.5t28 18.5z" />
<glyph unicode="&#xd4;" horiz-adv-x="684" d="M31 355q0 150 81 253q88 111 232 111t231 -109q81 -102 81 -255q0 -151 -82 -253q-87 -108 -230 -108q-134 0 -222 99q-91 102 -91 262zM125 357q0 -109 43 -185q58 -102 176 -102q94 0 154 71q65 77 65 216q0 138 -64 215q-59 71 -155 71q-95 0 -155 -73 q-64 -78 -64 -213zM456 846l118 48q7 4 23 4q15 0 28 -12t13 -27q0 -24 -33 -37l-117 -49q-13 -5 -30 -5q-16 0 -27.5 10t-13.5 25q2 13 11 24.5t28 18.5zM216 846l118 48q7 4 23 4q15 0 28 -12t13 -27q0 -24 -33 -37l-117 -49q-13 -5 -30 -5q-16 0 -27.5 10t-13.5 25 q2 13 11 24.5t28 18.5z" />
<glyph unicode="&#xd5;" horiz-adv-x="684" d="M31 355q0 150 81 253q88 111 232 111t231 -109q81 -102 81 -255q0 -151 -82 -253q-87 -108 -230 -108q-134 0 -222 99q-91 102 -91 262zM125 357q0 -109 43 -185q58 -102 176 -102q94 0 154 71q65 77 65 216q0 138 -64 215q-59 71 -155 71q-95 0 -155 -73 q-64 -78 -64 -213zM456 846l118 48q7 4 23 4q15 0 28 -12t13 -27q0 -24 -33 -37l-117 -49q-13 -5 -30 -5q-16 0 -27.5 10t-13.5 25q2 13 11 24.5t28 18.5zM216 846l118 48q7 4 23 4q15 0 28 -12t13 -27q0 -24 -33 -37l-117 -49q-13 -5 -30 -5q-16 0 -27.5 10t-13.5 25 q2 13 11 24.5t28 18.5z" />
<glyph unicode="&#xd6;" horiz-adv-x="684" d="M31 355q0 150 81 253q88 111 232 111t231 -109q81 -102 81 -255q0 -151 -82 -253q-87 -108 -230 -108q-134 0 -222 99q-91 102 -91 262zM125 357q0 -109 43 -185q58 -102 176 -102q94 0 154 71q65 77 65 216q0 138 -64 215q-59 71 -155 71q-95 0 -155 -73 q-64 -78 -64 -213zM197 818q0 23 16 39t39 16q21 0 37 -16t16 -39q0 -22 -15.5 -37.5t-37.5 -15.5q-23 0 -39 15t-16 38zM383 818q0 23 15 39t39 16q23 0 39 -16t16 -39q0 -22 -16.5 -37.5t-38.5 -15.5q-24 0 -39 15t-15 38z" />
<glyph unicode="&#xd7;" horiz-adv-x="1000" />
<glyph unicode="&#xd8;" horiz-adv-x="684" d="M31 355q0 150 81 253q88 111 232 111q62 0 111.5 -20.5t89.5 -59.5l62 74q11 14 28 14q31 0 31 -30q0 -7 -8 -19l-72 -84q70 -101 70 -239q0 -151 -82 -253q-87 -108 -230 -108q-118 0 -203 80l-61 -72q-15 -18 -35 -18q-23 0 -27 28q3 15 11 25l71 82 q-34 50 -51.5 107.5t-17.5 128.5zM527 523l-334 -388q27 -31 64 -48t87 -17q94 0 154 71q65 77 65 216q0 96 -36 166zM158 189l334 389q-59 65 -148 65q-95 0 -155 -73q-64 -78 -64 -213q0 -42 7.5 -85.5t25.5 -82.5z" />
<glyph unicode="&#xd9;" horiz-adv-x="666" d="M59 674q0 21 13 33t30 12q19 0 31.5 -11.5t12.5 -33.5v-428q0 -85 57 -132q53 -44 137 -44t133.5 48.5t49.5 127.5v428q0 21 12 33t29 12q19 0 32 -12t13 -33v-399q0 -131 -66 -204q-70 -77 -205 -77q-139 0 -211 77q-68 73 -68 202v401zM254 824q-15 6 -22.5 16t-9.5 21 q0 17 13 29t30 12q12 0 16 -2l133 -56q16 -6 24.5 -16.5t8.5 -22.5q0 -16 -11.5 -26.5t-31.5 -10.5l-23 5z" />
<glyph unicode="&#xda;" horiz-adv-x="666" d="M59 674q0 21 13 33t30 12q19 0 31.5 -11.5t12.5 -33.5v-428q0 -85 57 -132q53 -44 137 -44t133.5 48.5t49.5 127.5v428q0 21 12 33t29 12q19 0 32 -12t13 -33v-399q0 -131 -66 -204q-70 -77 -205 -77q-139 0 -211 77q-68 73 -68 202v401zM261 848l118 48q7 4 23 4 q15 0 28 -12t13 -27q0 -24 -33 -37l-117 -49q-13 -5 -30 -5q-16 0 -27.5 10t-13.5 25q2 13 11 24.5t28 18.5z" />
<glyph unicode="&#xdb;" horiz-adv-x="666" d="M59 674q0 21 13 33t30 12q19 0 31.5 -11.5t12.5 -33.5v-428q0 -85 57 -132q53 -44 137 -44t133.5 48.5t49.5 127.5v428q0 21 12 33t29 12q19 0 32 -12t13 -33v-399q0 -131 -66 -204q-70 -77 -205 -77q-139 0 -211 77q-68 73 -68 202v401zM456 846l118 48q7 4 23 4 q15 0 28 -12t13 -27q0 -24 -33 -37l-117 -49q-13 -5 -30 -5q-16 0 -27.5 10t-13.5 25q2 13 11 24.5t28 18.5zM216 846l118 48q7 4 23 4q15 0 28 -12t13 -27q0 -24 -33 -37l-117 -49q-13 -5 -30 -5q-16 0 -27.5 10t-13.5 25q2 13 11 24.5t28 18.5z" />
<glyph unicode="&#xdc;" horiz-adv-x="666" d="M59 674q0 21 13 33t30 12q19 0 31.5 -11.5t12.5 -33.5v-428q0 -85 57 -132q53 -44 137 -44t133.5 48.5t49.5 127.5v428q0 21 12 33t29 12q19 0 32 -12t13 -33v-399q0 -131 -66 -204q-70 -77 -205 -77q-139 0 -211 77q-68 73 -68 202v401zM187 818q0 23 16 39t39 16 q21 0 37 -16t16 -39q0 -22 -15.5 -37.5t-37.5 -15.5q-23 0 -39 15t-16 38zM373 818q0 23 15 39t39 16q23 0 39 -16t16 -39q0 -22 -16.5 -37.5t-38.5 -15.5q-24 0 -39 15t-15 38z" />
<glyph unicode="&#xdd;" horiz-adv-x="482" d="M207 336l-195 316q-9 19 -12 32q0 15 12 25t27 10q28 0 43 -24l168 -273l168 271q7 13 18 19.5t23 6.5q16 0 27.5 -10.5t11.5 -26.5q0 -15 -8 -28l-195 -318v-295q0 -22 -13.5 -35.5t-31.5 -13.5q-16 0 -29.5 13.5t-13.5 35.5v295zM179 850l118 48q7 4 23 4q15 0 28 -12 t13 -27q0 -24 -33 -37l-117 -49q-13 -5 -30 -5q-16 0 -27.5 10t-13.5 25q2 13 11 24.5t28 18.5z" />
<glyph unicode="&#xde;" horiz-adv-x="520" d="M146 525v-293h129q65 0 106 42t41 103q0 59 -33 99q-41 49 -118 49h-125zM146 156v-115q0 -24 -12.5 -37.5t-31.5 -13.5q-18 0 -30.5 13.5t-12.5 37.5v512v119q0 24 12.5 37.5t30.5 13.5q19 0 31.5 -13.5t12.5 -37.5v-72h133q105 0 168 -64t63 -159q0 -93 -65 -157 t-164 -64h-135z" />
<glyph unicode="&#xdf;" horiz-adv-x="557" d="M59 35v539q0 80 45 135q52 64 146 64q80 0 139.5 -53.5t59.5 -133.5q0 -108 -76 -164q66 -18 102 -79q31 -53 31 -124q0 -86 -54 -152q-60 -73 -149 -73q-31 0 -43 13.5t-10 31.5q6 33 39 33q76 0 105 57q18 35 18 98q0 59 -28 100q-32 48 -91 48q-26 0 -36.5 9.5 t-10.5 29.5q0 17 8 25t33 14q41 12 57.5 37t16.5 78q0 56 -28.5 92.5t-78.5 36.5q-52 0 -80.5 -37.5t-28.5 -98.5l1 -526q0 -20 -12.5 -30.5t-31.5 -10.5q-18 0 -30.5 10.5t-12.5 30.5z" />
<glyph unicode="&#xe0;" horiz-adv-x="557" d="M123 266q0 -81 34 -135q38 -61 107 -61q81 0 119 63q31 51 31 133q0 91 -39.5 144t-104.5 53q-73 0 -112 -58q-35 -52 -35 -139zM416 496q0 20 11.5 31.5t29.5 11.5t29.5 -11.5t11.5 -33.5v-455q0 -22 -11.5 -33.5t-29.5 -11.5q-17 0 -29 11t-12 30v39q-26 -33 -48 -49 q-42 -31 -93 -31q-102 0 -169 72q-71 76 -71 198q0 132 76 209q66 66 153 66q49 0 81.5 -16t68.5 -56zM196 668q-15 6 -22.5 16t-9.5 21q0 17 13 29t30 12q12 0 16 -2l133 -56q16 -6 24.5 -16.5t8.5 -22.5q0 -16 -11.5 -26.5t-31.5 -10.5l-23 5z" />
<glyph unicode="&#xe1;" horiz-adv-x="557" d="M123 266q0 -81 34 -135q38 -61 107 -61q81 0 119 63q31 51 31 133q0 91 -39.5 144t-104.5 53q-73 0 -112 -58q-35 -52 -35 -139zM416 496q0 20 11.5 31.5t29.5 11.5t29.5 -11.5t11.5 -33.5v-455q0 -22 -11.5 -33.5t-29.5 -11.5q-17 0 -29 11t-12 30v39q-26 -33 -48 -49 q-42 -31 -93 -31q-102 0 -169 72q-71 76 -71 198q0 132 76 209q66 66 153 66q49 0 81.5 -16t68.5 -56zM205 688l118 48q7 4 23 4q15 0 28 -12t13 -27q0 -24 -33 -37l-117 -49q-13 -5 -30 -5q-16 0 -27.5 10t-13.5 25q2 13 11 24.5t28 18.5z" />
<glyph unicode="&#xe2;" horiz-adv-x="557" d="M123 266q0 -81 34 -135q38 -61 107 -61q81 0 119 63q31 51 31 133q0 91 -39.5 144t-104.5 53q-73 0 -112 -58q-35 -52 -35 -139zM416 496q0 20 11.5 31.5t29.5 11.5t29.5 -11.5t11.5 -33.5v-455q0 -22 -11.5 -33.5t-29.5 -11.5q-17 0 -29 11t-12 30v39q-26 -33 -48 -49 q-42 -31 -93 -31q-102 0 -169 72q-71 76 -71 198q0 132 76 209q66 66 153 66q49 0 81.5 -16t68.5 -56zM278 736l130 -56q13 -4 19.5 -15t6.5 -24q0 -15 -9.5 -25.5t-27.5 -10.5l-24 6l-95 39l-94 -37l-29 -8q-15 0 -24.5 10.5t-9.5 25.5q0 30 24 39z" />
<glyph unicode="&#xe3;" horiz-adv-x="557" d="M123 266q0 -81 34 -135q38 -61 107 -61q81 0 119 63q31 51 31 133q0 91 -39.5 144t-104.5 53q-73 0 -112 -58q-35 -52 -35 -139zM416 496q0 20 11.5 31.5t29.5 11.5t29.5 -11.5t11.5 -33.5v-455q0 -22 -11.5 -33.5t-29.5 -11.5q-17 0 -29 11t-12 30v39q-26 -33 -48 -49 q-42 -31 -93 -31q-102 0 -169 72q-71 76 -71 198q0 132 76 209q66 66 153 66q49 0 81.5 -16t68.5 -56zM143 688q13 14 35 21.5t43 7.5q18 0 41 -5q67 -15 68 -15q32 10 65 20q14 0 23.5 -11.5t9.5 -25.5q0 -32 -34 -50q-28 -15 -62 -15l-9 2q-15 0 -47 9t-49 9 q-14 0 -30.5 -7t-32.5 -13q-17 8 -22 13q-9 9 -9 26q0 21 10 34z" />
<glyph unicode="&#xe4;" horiz-adv-x="557" d="M123 266q0 -81 34 -135q38 -61 107 -61q81 0 119 63q31 51 31 133q0 91 -39.5 144t-104.5 53q-73 0 -112 -58q-35 -52 -35 -139zM416 496q0 20 11.5 31.5t29.5 11.5t29.5 -11.5t11.5 -33.5v-455q0 -22 -11.5 -33.5t-29.5 -11.5q-17 0 -29 11t-12 30v39q-26 -33 -48 -49 q-42 -31 -93 -31q-102 0 -169 72q-71 76 -71 198q0 132 76 209q66 66 153 66q49 0 81.5 -16t68.5 -56zM131 658q0 23 16 39t39 16q21 0 37 -16t16 -39q0 -22 -15.5 -37.5t-37.5 -15.5q-23 0 -39 15t-16 38zM317 658q0 23 15 39t39 16q23 0 39 -16t16 -39q0 -22 -16.5 -37.5 t-38.5 -15.5q-24 0 -39 15t-15 38z" />
<glyph unicode="&#xe5;" horiz-adv-x="557" d="M123 266q0 -81 34 -135q38 -61 107 -61q81 0 119 63q31 51 31 133q0 91 -39.5 144t-104.5 53q-73 0 -112 -58q-35 -52 -35 -139zM416 496q0 20 11.5 31.5t29.5 11.5t29.5 -11.5t11.5 -33.5v-455q0 -22 -11.5 -33.5t-29.5 -11.5q-17 0 -29 11t-12 30v39q-26 -33 -48 -49 q-42 -31 -93 -31q-102 0 -169 72q-71 76 -71 198q0 132 76 209q66 66 153 66q49 0 81.5 -16t68.5 -56zM278 635q19 0 32.5 12.5t13.5 32.5q0 19 -13 33t-33 14q-19 0 -32 -14t-13 -33q0 -20 12.5 -32.5t32.5 -12.5zM278 586q-38 0 -66 28t-28 66q0 39 28 67t66 28 q39 0 67 -28t28 -67q0 -38 -28 -66t-67 -28z" />
<glyph unicode="&#xe6;" horiz-adv-x="889" d="M123 268q0 -88 38.5 -143t108.5 -55q71 0 111 61q35 54 35 131q0 91 -39.5 146t-110.5 55q-60 0 -97 -45q-46 -57 -46 -150zM416 496q0 20 11 30.5t28 10.5q19 0 31 -11t12 -32v-21q21 24 55 42q45 24 90 24q94 0 159 -83q61 -78 61 -175q0 -49 -49 -49h-324 q0 -70 46 -115t110 -45q45 0 84 18q28 13 73 47q12 4 17 4q14 0 23 -11t9 -26q0 -7 -1.5 -13t-2.5 -9q-25 -36 -79 -62t-107 -26q-49 0 -92.5 15t-69.5 50l-2 -20q0 -21 -12 -33t-29 -12q-16 0 -28.5 11.5t-12.5 31.5v37q-25 -34 -56 -53q-41 -25 -94 -25q-106 0 -171 82 q-60 75 -60 186q0 128 75 206q66 69 154 69q42 0 82 -19.5t68 -52.5zM775 299q0 78 -42 123q-38 41 -96 41q-63 0 -100 -39q-41 -43 -41 -125h279z" />
<glyph unicode="&#xe7;" horiz-adv-x="443" d="M285 -6l-25 -37l21 4q27 0 46.5 -15t22.5 -40q0 -43 -30.5 -64.5t-81.5 -21.5q-34 0 -54 9.5t-20 25.5q0 10 6 19t16 9q6 0 24 -5t28 -5q35 0 35 27q0 13 -10 16.5t-34 3.5q-27 0 -30 19q2 8 10 24l23 35q-99 15 -153 100q-44 70 -44 156q0 60 12 106t41.5 87.5t75 66.5 t107.5 25q50 0 89 -12q58 -18 58 -56q0 -15 -11 -25.5t-28 -11.5q-33 12 -50 17q-31 10 -54 10q-71 0 -114 -60q-38 -53 -38 -128q0 -76 25 -129q35 -74 106 -74q16 0 21 -2q24 0 45 8q26 12 38.5 18t22.5 6q15 0 24 -10t9 -27q0 -36 -50 -55q-37 -14 -79 -14z" />
<glyph unicode="&#xe8;" horiz-adv-x="520" d="M25 271q0 107 61 184q67 84 174 84q104 0 171 -82q63 -77 63 -182q0 -19 -8 -29q-12 -14 -41 -14h-332q0 -79 48 -122q44 -40 114 -40q43 0 77.5 14t65.5 41q22 16 33 16t18 -6q13 -11 13 -31q0 -7 -2 -14t-11 -18q-30 -31 -83 -54.5t-116 -23.5q-126 0 -192 91 q-55 75 -55 181zM113 299h293q0 73 -38.5 118.5t-103.5 45.5q-68 0 -109.5 -43.5t-41.5 -120.5zM182 664q-15 6 -22.5 16t-9.5 21q0 17 13 29t30 12q12 0 16 -2l133 -56q16 -6 24.5 -16.5t8.5 -22.5q0 -16 -11.5 -26.5t-31.5 -10.5l-23 5z" />
<glyph unicode="&#xe9;" horiz-adv-x="520" d="M25 271q0 107 61 184q67 84 174 84q104 0 171 -82q63 -77 63 -182q0 -19 -8 -29q-12 -14 -41 -14h-332q0 -79 48 -122q44 -40 114 -40q43 0 77.5 14t65.5 41q22 16 33 16t18 -6q13 -11 13 -31q0 -7 -2 -14t-11 -18q-30 -31 -83 -54.5t-116 -23.5q-126 0 -192 91 q-55 75 -55 181zM113 299h293q0 73 -38.5 118.5t-103.5 45.5q-68 0 -109.5 -43.5t-41.5 -120.5zM189 690l118 48q7 4 23 4q15 0 28 -12t13 -27q0 -24 -33 -37l-117 -49q-13 -5 -30 -5q-16 0 -27.5 10t-13.5 25q2 13 11 24.5t28 18.5z" />
<glyph unicode="&#xea;" horiz-adv-x="520" d="M25 271q0 107 61 184q67 84 174 84q104 0 171 -82q63 -77 63 -182q0 -19 -8 -29q-12 -14 -41 -14h-332q0 -79 48 -122q44 -40 114 -40q43 0 77.5 14t65.5 41q22 16 33 16t18 -6q13 -11 13 -31q0 -7 -2 -14t-11 -18q-30 -31 -83 -54.5t-116 -23.5q-126 0 -192 91 q-55 75 -55 181zM113 299h293q0 73 -38.5 118.5t-103.5 45.5q-68 0 -109.5 -43.5t-41.5 -120.5zM258 738l130 -56q13 -4 19.5 -15t6.5 -24q0 -15 -9.5 -25.5t-27.5 -10.5l-24 6l-95 39l-94 -37l-29 -8q-15 0 -24.5 10.5t-9.5 25.5q0 30 24 39z" />
<glyph unicode="&#xeb;" horiz-adv-x="520" d="M25 271q0 107 61 184q67 84 174 84q104 0 171 -82q63 -77 63 -182q0 -19 -8 -29q-12 -14 -41 -14h-332q0 -79 48 -122q44 -40 114 -40q43 0 77.5 14t65.5 41q22 16 33 16t18 -6q13 -11 13 -31q0 -7 -2 -14t-11 -18q-30 -31 -83 -54.5t-116 -23.5q-126 0 -192 91 q-55 75 -55 181zM113 299h293q0 73 -38.5 118.5t-103.5 45.5q-68 0 -109.5 -43.5t-41.5 -120.5zM113 658q0 23 16 39t39 16q21 0 37 -16t16 -39q0 -22 -15.5 -37.5t-37.5 -15.5q-23 0 -39 15t-16 38zM299 658q0 23 15 39t39 16q23 0 39 -16t16 -39q0 -22 -16.5 -37.5 t-38.5 -15.5q-24 0 -39 15t-15 38z" />
<glyph unicode="&#xec;" horiz-adv-x="203" d="M59 494q0 21 13 33t30 12q18 0 31 -12t13 -35v-453q0 -21 -13 -33t-31 -12q-19 0 -31 11.5t-12 33.5v455zM91 666q-15 6 -22.5 16t-9.5 21q0 17 13 29t30 12q12 0 16 -2l133 -56q16 -6 24.5 -16.5t8.5 -22.5q0 -16 -11.5 -26.5t-31.5 -10.5l-23 5z" />
<glyph unicode="&#xed;" horiz-adv-x="203" d="M59 494q0 21 13 33t30 12q18 0 31 -12t13 -35v-453q0 -21 -13 -33t-31 -12q-19 0 -31 11.5t-12 33.5v455zM98 688l118 48q7 4 23 4q15 0 28 -12t13 -27q0 -24 -33 -37l-117 -49q-13 -5 -30 -5q-16 0 -27.5 10t-13.5 25q2 13 11 24.5t28 18.5z" />
<glyph unicode="&#xee;" horiz-adv-x="203" d="M59 494q0 21 13 33t30 12q18 0 31 -12t13 -35v-453q0 -21 -13 -33t-31 -12q-19 0 -31 11.5t-12 33.5v455zM216 736l130 -56q13 -4 19.5 -15t6.5 -24q0 -15 -9.5 -25.5t-27.5 -10.5l-24 6l-95 39l-94 -37l-29 -8q-15 0 -24.5 10.5t-9.5 25.5q0 30 24 39z" />
<glyph unicode="&#xef;" horiz-adv-x="203" d="M59 494q0 21 13 33t30 12q18 0 31 -12t13 -35v-453q0 -21 -13 -33t-31 -12q-19 0 -31 11.5t-12 33.5v455zM59 658q0 23 16 39t39 16q21 0 37 -16t16 -39q0 -22 -15.5 -37.5t-37.5 -15.5q-23 0 -39 15t-16 38zM245 658q0 23 15 39t39 16q23 0 39 -16t16 -39 q0 -22 -16.5 -37.5t-38.5 -15.5q-24 0 -39 15t-15 38z" />
<glyph unicode="&#xf0;" d="M35 262q0 109 59 186q65 85 170 85q36 0 70 -16t55 -44l2 2q-17 44 -52 89q-30 38 -69 71l-86 -41q-14 -7 -32 -10q-10 2 -13.5 6.5t-9.5 18.5q3 20 17 26l79 37q-11 8 -64 33q-30 14 -30 37q0 31 37 31q24 0 62 -17.5t73 -44.5l92 47q5 3 13 5.5t14 2.5q25 0 25 -24 q0 -11 -4.5 -17.5t-16.5 -11.5l-78 -37q79 -70 119 -171q37 -94 37 -206q0 -140 -58 -219q-63 -86 -182 -86q-105 0 -170 84q-59 76 -59 184zM123 262q0 -76 35 -130q40 -62 112 -62q71 0 111 62q35 54 35 130t-35 130q-41 63 -111 63q-72 0 -112 -62q-35 -54 -35 -131z" />
<glyph unicode="&#xf1;" d="M59 492q0 22 12.5 34.5t30.5 12.5t31 -12t13 -35v-21l2 -2q53 70 145 70q78 0 129 -49q58 -56 58 -154v-297q0 -21 -13 -32t-31 -11q-19 0 -31 10.5t-12 32.5v295q0 60 -36.5 93.5t-86.5 33.5q-52 0 -88 -33.5t-36 -95.5v-293q0 -22 -12 -34.5t-30 -12.5q-19 0 -32 13 t-13 34v453zM133 688q13 14 35 21.5t43 7.5q18 0 41 -5q67 -15 68 -15q32 10 65 20q14 0 23.5 -11.5t9.5 -25.5q0 -32 -34 -50q-28 -15 -62 -15l-9 2q-15 0 -47 9t-49 9q-14 0 -30.5 -7t-32.5 -13q-17 8 -22 13q-9 9 -9 26q0 21 10 34z" />
<glyph unicode="&#xf2;" d="M123 266q0 -74 31 -128q39 -68 114 -68q72 0 112 59q36 54 36 137q0 84 -36 138q-40 59 -110 59q-69 0 -108 -55.5t-39 -141.5zM35 266q0 119 66 196t169 77q106 0 172 -82q62 -77 62 -191t-62 -191q-66 -81 -172 -81q-107 0 -173 81q-62 76 -62 191zM192 662 q-15 6 -22.5 16t-9.5 21q0 17 13 29t30 12q12 0 16 -2l133 -56q16 -6 24.5 -16.5t8.5 -22.5q0 -16 -11.5 -26.5t-31.5 -10.5l-23 5z" />
<glyph unicode="&#xf3;" d="M123 266q0 -74 31 -128q39 -68 114 -68q72 0 112 59q36 54 36 137q0 84 -36 138q-40 59 -110 59q-69 0 -108 -55.5t-39 -141.5zM35 266q0 119 66 196t169 77q106 0 172 -82q62 -77 62 -191t-62 -191q-66 -81 -172 -81q-107 0 -173 81q-62 76 -62 191zM199 690l118 48 q7 4 23 4q15 0 28 -12t13 -27q0 -24 -33 -37l-117 -49q-13 -5 -30 -5q-16 0 -27.5 10t-13.5 25q2 13 11 24.5t28 18.5z" />
<glyph unicode="&#xf4;" d="M123 266q0 -74 31 -128q39 -68 114 -68q72 0 112 59q36 54 36 137q0 84 -36 138q-40 59 -110 59q-69 0 -108 -55.5t-39 -141.5zM35 266q0 119 66 196t169 77q106 0 172 -82q62 -77 62 -191t-62 -191q-66 -81 -172 -81q-107 0 -173 81q-62 76 -62 191zM378 690l118 48 q7 4 23 4q15 0 28 -12t13 -27q0 -24 -33 -37l-117 -49q-13 -5 -30 -5q-16 0 -27.5 10t-13.5 25q2 13 11 24.5t28 18.5zM138 690l118 48q7 4 23 4q15 0 28 -12t13 -27q0 -24 -33 -37l-117 -49q-13 -5 -30 -5q-16 0 -27.5 10t-13.5 25q2 13 11 24.5t28 18.5z" />
<glyph unicode="&#xf5;" d="M123 266q0 -74 31 -128q39 -68 114 -68q72 0 112 59q36 54 36 137q0 84 -36 138q-40 59 -110 59q-69 0 -108 -55.5t-39 -141.5zM35 266q0 119 66 196t169 77q106 0 172 -82q62 -77 62 -191t-62 -191q-66 -81 -172 -81q-107 0 -173 81q-62 76 -62 191zM378 690l118 48 q7 4 23 4q15 0 28 -12t13 -27q0 -24 -33 -37l-117 -49q-13 -5 -30 -5q-16 0 -27.5 10t-13.5 25q2 13 11 24.5t28 18.5zM138 690l118 48q7 4 23 4q15 0 28 -12t13 -27q0 -24 -33 -37l-117 -49q-13 -5 -30 -5q-16 0 -27.5 10t-13.5 25q2 13 11 24.5t28 18.5z" />
<glyph unicode="&#xf6;" d="M123 266q0 -74 31 -128q39 -68 114 -68q72 0 112 59q36 54 36 137q0 84 -36 138q-40 59 -110 59q-69 0 -108 -55.5t-39 -141.5zM35 266q0 119 66 196t169 77q106 0 172 -82q62 -77 62 -191t-62 -191q-66 -81 -172 -81q-107 0 -173 81q-62 76 -62 191zM123 660q0 23 16 39 t39 16q21 0 37 -16t16 -39q0 -22 -15.5 -37.5t-37.5 -15.5q-23 0 -39 15t-16 38zM309 660q0 23 15 39t39 16q23 0 39 -16t16 -39q0 -22 -16.5 -37.5t-38.5 -15.5q-24 0 -39 15t-15 38z" />
<glyph unicode="&#xf7;" horiz-adv-x="1000" />
<glyph unicode="&#xf8;" d="M395 369l-217 -262q17 -17 39 -27t54 -10q64 0 104.5 52t40.5 142q0 58 -21 105zM143 162l218 264q-37 37 -91 37q-65 0 -104 -46q-43 -51 -43 -144l-2 -13q0 -52 22 -98zM35 262q0 116 61 194q65 83 175 83q47 0 83 -15t58 -38l43 53q15 18 29 18q11 0 21.5 -9.5 t10.5 -20.5q0 -10 -10 -23l-53 -65q23 -33 37 -78.5t14 -96.5q0 -112 -61 -188q-66 -82 -173 -82q-44 0 -78.5 12.5t-64.5 38.5l-45 -53q-10 -15 -29 -15q-11 0 -21 8t-12 19q2 13 15 29l51 61q-22 28 -36.5 73.5t-14.5 94.5z" />
<glyph unicode="&#xf9;" d="M59 494q0 21 13 33t30 12q19 0 31.5 -11.5t12.5 -33.5v-291q0 -62 30 -97.5t92 -35.5q72 0 103 46q22 33 22 87v291q0 21 13 33t30 12q19 0 31.5 -11.5t12.5 -33.5v-293q0 -87 -48 -142q-57 -65 -166 -65q-103 0 -158 62q-49 56 -49 145v293zM190 662q-15 6 -22.5 16 t-9.5 21q0 17 13 29t30 12q12 0 16 -2l133 -56q16 -6 24.5 -16.5t8.5 -22.5q0 -16 -11.5 -26.5t-31.5 -10.5l-23 5z" />
<glyph unicode="&#xfa;" d="M59 494q0 21 13 33t30 12q19 0 31.5 -11.5t12.5 -33.5v-291q0 -62 30 -97.5t92 -35.5q72 0 103 46q22 33 22 87v291q0 21 13 33t30 12q19 0 31.5 -11.5t12.5 -33.5v-293q0 -87 -48 -142q-57 -65 -166 -65q-103 0 -158 62q-49 56 -49 145v293zM191 686l118 48q7 4 23 4 q15 0 28 -12t13 -27q0 -24 -33 -37l-117 -49q-13 -5 -30 -5q-16 0 -27.5 10t-13.5 25q2 13 11 24.5t28 18.5z" />
<glyph unicode="&#xfb;" d="M59 494q0 21 13 33t30 12q19 0 31.5 -11.5t12.5 -33.5v-291q0 -62 30 -97.5t92 -35.5q72 0 103 46q22 33 22 87v291q0 21 13 33t30 12q19 0 31.5 -11.5t12.5 -33.5v-293q0 -87 -48 -142q-57 -65 -166 -65q-103 0 -158 62q-49 56 -49 145v293zM378 690l118 48q7 4 23 4 q15 0 28 -12t13 -27q0 -24 -33 -37l-117 -49q-13 -5 -30 -5q-16 0 -27.5 10t-13.5 25q2 13 11 24.5t28 18.5zM138 690l118 48q7 4 23 4q15 0 28 -12t13 -27q0 -24 -33 -37l-117 -49q-13 -5 -30 -5q-16 0 -27.5 10t-13.5 25q2 13 11 24.5t28 18.5z" />
<glyph unicode="&#xfc;" d="M59 494q0 21 13 33t30 12q19 0 31.5 -11.5t12.5 -33.5v-291q0 -62 30 -97.5t92 -35.5q72 0 103 46q22 33 22 87v291q0 21 13 33t30 12q19 0 31.5 -11.5t12.5 -33.5v-293q0 -87 -48 -142q-57 -65 -166 -65q-103 0 -158 62q-49 56 -49 145v293zM125 656q0 23 16 39t39 16 q21 0 37 -16t16 -39q0 -22 -15.5 -37.5t-37.5 -15.5q-23 0 -39 15t-16 38zM311 656q0 23 15 39t39 16q23 0 39 -16t16 -39q0 -22 -16.5 -37.5t-38.5 -15.5q-24 0 -39 15t-15 38z" />
<glyph unicode="&#xfd;" horiz-adv-x="426" d="M180 20l-159 455l-5 23q0 18 11.5 28.5t29.5 10.5q15 0 28 -8.5t17 -22.5l121 -365l123 367q9 31 41 31q17 0 29 -11t12 -32l-4 -21l-231 -657q-5 -19 -18 -29t-30 -10q-15 0 -25.5 10.5t-10.5 30.5l6 28zM150 688l118 48q7 4 23 4q15 0 28 -12t13 -27q0 -24 -33 -37 l-117 -49q-13 -5 -30 -5q-16 0 -27.5 10t-13.5 25q2 13 11 24.5t28 18.5z" />
<glyph unicode="&#xfe;" horiz-adv-x="557" d="M434 266q0 82 -32 135q-38 62 -107 62q-81 0 -121 -63q-33 -52 -33 -132q0 -91 40 -145.5t104 -54.5l8 2q67 0 104 55.5t37 140.5zM150 -170q0 -26 -11.5 -39.5t-31.5 -13.5q-17 0 -30.5 14.5t-13.5 36.5v899q0 21 12.5 32.5t29.5 11.5q19 0 32 -10.5t13 -31.5v-262 q17 29 44 47q38 25 91 25q105 0 170.5 -74.5t65.5 -194.5q0 -117 -62.5 -196.5t-163.5 -79.5q-45 0 -81.5 19.5t-61.5 52.5z" />
<glyph unicode="&#xff;" horiz-adv-x="426" d="M180 20l-159 455l-5 23q0 18 11.5 28.5t29.5 10.5q15 0 28 -8.5t17 -22.5l121 -365l123 367q9 31 41 31q17 0 29 -11t12 -32l-4 -21l-231 -657q-5 -19 -18 -29t-30 -10q-15 0 -25.5 10.5t-10.5 30.5l6 28zM72 658q0 23 16 39t39 16q21 0 37 -16t16 -39q0 -22 -15.5 -37.5 t-37.5 -15.5q-23 0 -39 15t-16 38zM258 658q0 23 15 39t39 16q23 0 39 -16t16 -39q0 -22 -16.5 -37.5t-38.5 -15.5q-24 0 -39 15t-15 38z" />
<glyph unicode="&#x131;" horiz-adv-x="203" d="M59 494q0 21 13 33t30 12q18 0 31 -12t13 -35v-453q0 -21 -13 -33t-31 -12q-19 0 -31 11.5t-12 33.5v455z" />
<glyph unicode="&#x152;" horiz-adv-x="926" d="M346 70q106 0 163 85q52 77 52 204q0 126 -54 202q-58 82 -163 82q-103 0 -163 -84q-56 -79 -56 -204q0 -126 54 -202q59 -83 167 -83zM555 49v55q-37 -50 -92.5 -80t-118.5 -30q-145 0 -233 112q-80 102 -80 249q0 149 81 252q88 112 232 112q63 0 118 -28 q49 -25 93 -72v45q0 23 11 36t36 13h248q19 0 29 -12t10 -29q0 -41 -45 -41h-201v-235h197q18 0 28.5 -11.5t10.5 -29.5q0 -17 -11 -29t-32 -12h-193v-232h214q39 0 39 -43q0 -16 -10.5 -27.5t-31.5 -11.5h-252q-24 0 -35.5 13.5t-11.5 35.5z" />
<glyph unicode="&#x153;" horiz-adv-x="908" d="M793 299q0 78 -43 123q-39 41 -102 41q-60 0 -101 -42q-45 -46 -45 -122h291zM459 434q25 43 70 71q55 34 123 34q100 0 166 -80q63 -76 63 -178q0 -49 -49 -49h-330q0 -65 37.5 -108.5t95.5 -49.5q21 0 31 -2q40 0 74.5 14.5t72.5 44.5q12 10 25 10q14 0 22.5 -11 t8.5 -26q0 -8 -4 -20q-23 -37 -81.5 -63.5t-121.5 -26.5q-65 0 -119 26t-84 78q-40 -56 -100 -82q-50 -22 -109 -22q-83 0 -146 72q-69 79 -69 198q0 131 75 207q67 68 161 68q71 0 127 -41q34 -25 61 -64zM123 268q0 -87 38 -142.5t107 -55.5q73 0 112 61q34 53 34 133 q0 91 -39 145t-109 54q-60 0 -97 -45q-46 -57 -46 -150z" />
<glyph unicode="&#x192;" d="M213 418h-63q-15 0 -25 9.5t-12 21.5q2 13 11 22t26 9h71l31 157q15 83 74 111q34 16 100 16q19 0 30 -10.5t11 -24.5q0 -15 -10.5 -25.5t-30.5 -10.5q-48 0 -67 -12q-26 -17 -37 -68l-31 -133h63q16 0 25.5 -9t9.5 -22q0 -12 -9.5 -21.5t-25.5 -9.5h-71l-78 -418 q-15 -101 -69 -143q-40 -31 -105 -31q-23 0 -35 11t-12 28q0 14 10.5 23.5t28.5 9.5q45 0 67 17q33 26 45 101z" />
<glyph unicode="&#x2c6;" horiz-adv-x="203" d="M102 736l130 -56q13 -4 19.5 -15t6.5 -24q0 -15 -9.5 -25.5t-27.5 -10.5l-24 6l-95 39l-94 -37l-29 -8q-15 0 -24.5 10.5t-9.5 25.5q0 30 24 39z" />
<glyph unicode="&#x2d8;" horiz-adv-x="203" d="M-33 697q0 16 8.5 26.5t22.5 10.5q6 0 55 -39q24 -19 49 -19q31 0 62 29t43 29q13 0 21 -11t8 -26q0 -41 -44 -69t-90 -28q-47 0 -88 26q-47 30 -47 71z" />
<glyph unicode="&#x2da;" horiz-adv-x="203" d="M102 633q19 0 32.5 12.5t13.5 32.5q0 19 -13 33t-33 14q-19 0 -32 -14t-13 -33q0 -20 12.5 -32.5t32.5 -12.5zM102 584q-38 0 -66 28t-28 66q0 39 28 67t66 28q39 0 67 -28t28 -67q0 -38 -28 -66t-67 -28z" />
<glyph unicode="&#x2dc;" horiz-adv-x="203" d="M-35 688q13 14 35 21.5t43 7.5q18 0 41 -5q67 -15 68 -15q32 10 65 20q14 0 23.5 -11.5t9.5 -25.5q0 -32 -34 -50q-28 -15 -62 -15l-9 2q-15 0 -47 9t-49 9q-14 0 -30.5 -7t-32.5 -13q-17 8 -22 13q-9 9 -9 26q0 21 10 34z" />
<glyph unicode="&#x2013;" horiz-adv-x="500" d="M41 230q-41 0 -41 38q0 17 11 28t32 11h416q20 0 30.5 -10.5t10.5 -28.5q0 -16 -11 -27t-30 -11h-418z" />
<glyph unicode="&#x2014;" horiz-adv-x="1000" d="M0 307h998h4q17 0 27 -11t10 -28q0 -15 -10.5 -26.5t-26.5 -11.5h-998h-4q-37 0 -37 38q0 16 9.5 27.5t27.5 11.5z" />
<glyph unicode="&#x2018;" horiz-adv-x="186" d="M33 566l65 125q6 14 17.5 21t23.5 7q16 0 27.5 -10.5t11.5 -28.5q0 -15 -6 -30l-65 -125q-6 -14 -18 -21.5t-26 -9.5q-15 0 -26.5 11.5t-11.5 29.5q3 21 8 31z" />
<glyph unicode="&#x2019;" horiz-adv-x="186" d="M33 564l61 122q8 17 19 24t24 7q17 0 30 -9.5t13 -27.5q0 -11 -1 -15.5t-7 -16.5l-63 -121q-8 -18 -18.5 -25.5t-22.5 -9.5q-39 7 -45 43q2 8 3.5 12.5t6.5 16.5z" />
<glyph unicode="&#x201c;" horiz-adv-x="314" d="M166 652l-62 -125q-7 -14 -19.5 -21.5t-27.5 -9.5q-15 0 -26 11t-11 28q2 17 7 29l61 124q15 31 45 31q16 0 27.5 -11.5t11.5 -29.5q0 -14 -6 -26zM309 652l-65 -125q-15 -28 -45 -31q-14 0 -25 11t-12 28q1 7 2.5 14t5.5 15l60 124q15 31 43 31q18 0 29.5 -11.5 t11.5 -29.5q0 -16 -5 -26z" />
<glyph unicode="&#x201d;" horiz-adv-x="314" d="M166 652l-62 -125q-7 -14 -19.5 -21.5t-27.5 -9.5q-15 0 -26 11t-11 28q2 17 7 29l61 124q15 31 45 31q16 0 27.5 -11.5t11.5 -29.5q0 -14 -6 -26zM309 652l-65 -125q-15 -28 -45 -31q-14 0 -25 11t-12 28q1 7 2.5 14t5.5 15l60 124q15 31 43 31q18 0 29.5 -11.5 t11.5 -29.5q0 -16 -5 -26z" />
<glyph unicode="&#x201e;" horiz-adv-x="314" d="M166 29l-62 -125q-15 -29 -47 -29q-16 0 -26.5 10.5t-10.5 28.5q2 16 7 27l61 123q15 32 45 32q16 0 27.5 -11.5t11.5 -29.5q0 -14 -6 -26zM309 29l-65 -125q-15 -29 -45 -29q-15 0 -26 10t-11 29q2 6 3 12t5 15l60 123q7 16 19 24t24 8q18 0 29.5 -11.5t11.5 -29.5 q0 -16 -5 -26z" />
<glyph unicode="&#x2020;" horiz-adv-x="609" d="M266 471v209q0 18 11.5 28.5t29.5 10.5q16 0 28.5 -10.5t12.5 -28.5v-209h199q19 0 29 -12t10 -29q0 -18 -10.5 -29.5t-30.5 -11.5h-197v-565q0 -19 -12 -29t-29 -10q-18 0 -29.5 10.5t-11.5 30.5v563h-202q-16 0 -26.5 12t-12.5 29q2 17 12 29t27 12h202z" />
<glyph unicode="&#x2021;" horiz-adv-x="609" d="M266 408h-202q-17 0 -27 12t-12 29q4 41 39 41h202v190q0 18 11.5 28.5t29.5 10.5q16 0 28.5 -10.5t12.5 -28.5v-190h199q18 0 28.5 -11.5t10.5 -29.5q0 -17 -11 -29t-30 -12h-197v-314h197q19 0 30 -12t11 -31q0 -16 -10.5 -27.5t-28.5 -11.5h-199v-190q0 -19 -12 -29 t-29 -10q-18 0 -29.5 10.5t-11.5 28.5v190h-202q-16 0 -26.5 11.5t-12.5 27.5q2 19 12 31t27 12h202v314z" />
<glyph unicode="&#x2022;" horiz-adv-x="500" d="M72 355q0 74 52 127t126 53t126 -52t52 -128q0 -73 -52 -125t-126 -52t-126 52t-52 125z" />
<glyph unicode="&#x2026;" horiz-adv-x="1000" d="M115 45q0 21 15 36t38 15q21 0 36 -15t15 -36t-15 -36t-36 -15t-37 15t-16 36zM449 45q0 21 15 36t36 15t36 -15t15 -36t-14 -36t-37 -15q-21 0 -36 15t-15 36zM783 45q0 21 15 36t36 15t36 -15t15 -36t-15 -36t-36 -15t-36 15t-15 36z" />
<glyph unicode="&#x2030;" horiz-adv-x="1094" d="M459 160q0 -47 24 -79t62 -32q41 0 63.5 29.5t22.5 81.5q0 54 -22 85.5t-62 31.5q-44 0 -66 -32t-22 -85zM393 158q0 74 37 121q42 53 117 53q65 0 107.5 -47.5t42.5 -126.5q0 -76 -43 -120t-109 -44q-67 0 -109.5 46.5t-42.5 117.5zM811 160q0 -47 22.5 -80t59.5 -33 l3 2q42 0 64 30t22 81q0 55 -24 87t-62 32q-43 0 -64 -32.5t-21 -86.5zM744 158q0 75 36 121q41 53 118 53q64 0 107.5 -47.5t43.5 -126.5q0 -75 -43.5 -119.5t-109.5 -44.5q-68 0 -110 46.5t-42 117.5zM111 547q0 -48 24 -80.5t62 -32.5q41 0 63.5 30.5t22.5 82.5 q0 53 -23 85t-63 32q-42 0 -64 -32t-22 -85zM45 545q0 74 37 121q42 53 117 53q64 0 107.5 -48t43.5 -126q0 -77 -43.5 -120.5t-109.5 -43.5q-68 0 -110 46t-42 118zM203 37l276 662q5 14 14 21t19 7q14 0 24.5 -7t10.5 -21q0 -3 -4 -19l-277 -670q-9 -24 -37 -24 q-27 0 -34 28z" />
<glyph unicode="&#x2039;" horiz-adv-x="240" d="M43 268l100 179q6 14 15.5 20t19.5 6q13 0 25 -11t12 -24q0 -12 -10 -32l-84 -138l86 -143q4 -6 6 -14.5t2 -14.5q0 -16 -11.5 -23t-27.5 -10q-21 0 -31 25z" />
<glyph unicode="&#x203a;" horiz-adv-x="240" d="M217 268l-100 -178q-14 -27 -35 -27q-16 3 -26 10t-13 23q2 10 3.5 14t8.5 21l82 137l-86 142l-10 26q3 35 39 35q24 0 35 -22z" />
<glyph unicode="&#x2122;" horiz-adv-x="990" d="M186 646h-100q-25 0 -29 32q2 16 8.5 25.5t20.5 9.5h279q14 0 22 -10t8 -23q0 -14 -7 -24t-21 -10h-99v-310q0 -18 -11.5 -27.5t-29.5 -11.5q-19 2 -30 11t-11 28v310zM475 652q0 35 16 51t44 16q26 0 43.5 -8t26.5 -35l100 -258l98 260q14 41 70 41q26 0 43.5 -15.5 t17.5 -49.5v-316q0 -20 -10.5 -29.5t-27.5 -11.5q-17 2 -28 12t-11 27v289l-113 -297q-4 -14 -15 -21.5t-26 -9.5q-12 2 -23.5 9.5t-15.5 21.5l-111 297l-2 -287q0 -18 -11 -28.5t-28 -12.5q-16 2 -26.5 12.5t-10.5 28.5v314z" />
<glyph unicode="&#x25fc;" horiz-adv-x="540" d="M0 540h540v-540h-540v540z" />
<glyph unicode="&#xf001;" horiz-adv-x="443" d="M86 457h-37q-24 0 -33.5 11t-9.5 28q0 37 45 37h35v127q0 51 33 82t82 31q35 0 50 -5q28 -9 28 -36q0 -15 -11 -25t-34 -10h-27q-33 0 -33 -39v-125h56q21 0 31 -9t12 -26q0 -20 -9.5 -30.5t-33.5 -10.5h-56v-418q0 -20 -13.5 -32.5t-31.5 -12.5q-19 0 -31 11.5t-12 33.5 v418zM318 492q0 22 12.5 34.5t30.5 12.5q19 0 32 -12t13 -33v-455q0 -21 -13 -33t-32 -12q-17 0 -30 12t-13 33v453zM363 609q-24 0 -39 16t-15 39q0 22 15.5 38.5t38.5 16.5t38 -16t15 -39q0 -22 -15.5 -38.5t-37.5 -16.5z" />
<glyph unicode="&#xf002;" horiz-adv-x="443" d="M86 457h-37q-24 0 -33.5 11t-9.5 28q0 37 45 37h35v127q0 51 33 82t82 31q35 0 50 -5q28 -9 28 -36q0 -15 -11 -25t-34 -10h-27q-33 0 -33 -39v-125h56q21 0 31 -9t12 -26q0 -20 -9.5 -30.5t-33.5 -10.5h-56v-418q0 -20 -13.5 -32.5t-31.5 -12.5q-19 0 -31 11.5t-12 33.5 v418zM316 725q0 22 13 34t30 12q18 0 31.5 -11.5t13.5 -32.5v-686q0 -22 -12.5 -34.5t-32.5 -12.5q-16 0 -29.5 12.5t-13.5 34.5v684z" />
</font>
</defs>
</svg>
