<?xml version="1.0" encoding="UTF-8" standalone="no"?>
<svg width="24px" height="25px" viewBox="0 0 24 25" version="1.1" xmlns="http://www.w3.org/2000/svg" xmlns:xlink="http://www.w3.org/1999/xlink" xmlns:sketch="http://www.bohemiancoding.com/sketch/ns">
    <!-- Generator: Sketch 3.3.2 (12043) - http://www.bohemiancoding.com/sketch -->
    <title>Slice 4</title>
    <desc>Created with Sketch.</desc>
    <defs></defs>
    <g id="Page-1" stroke="none" stroke-width="1" fill="none" fill-rule="evenodd" sketch:type="MSPage">
        <g id="social_icons" sketch:type="MSLayerGroup" transform="translate(-98.000000, 0.000000)">
            <path d="M13.2,0.3 L145,0.3 C151.8,0.3 157.4,5.7 157.4,12.5 C157.4,19.2 151.9,24.7 145,24.7 L13.2,24.7 C6.4,24.7 0.8,19.3 0.8,12.5 C0.8,5.8 6.4,0.3 13.2,0.3 L13.2,0.3 Z" id="Shape" fill="#000000" sketch:type="MSShapeGroup"></path>
            <path d="M105,24.7 L109.3,24.7 L109.3,14 L112.5,14 L112.9,9.7 L109.5,9.7 L109.5,8 C109.5,7.2 110.1,7 110.4,7 L112.8,7 L112.8,3.3 L109.5,3.3 C105.8,3.3 105,6 105,7.8 L105,9.7 L102.9,9.7 L102.9,14 L105,14 C105,18.8 105,24.7 105,24.7 L105,24.7 Z" id="Shape" fill="#FFFFFF" sketch:type="MSShapeGroup"></path>
        </g>
    </g>
</svg>