<?xml version="1.0" encoding="UTF-8" standalone="no"?>
<svg width="38px" height="25px" viewBox="0 0 38 25" version="1.1" xmlns="http://www.w3.org/2000/svg" xmlns:xlink="http://www.w3.org/1999/xlink" xmlns:sketch="http://www.bohemiancoding.com/sketch/ns">
    <!-- Generator: Sketch 3.3.2 (12043) - http://www.bohemiancoding.com/sketch -->
    <title>Slice 1</title>
    <desc>Created with Sketch.</desc>
    <defs></defs>
    <g id="Page-1" stroke="none" stroke-width="1" fill="none" fill-rule="evenodd" sketch:type="MSPage">
        <g id="social_icons" sketch:type="MSLayerGroup">
            <path d="M13.2,0.3 L145,0.3 C151.8,0.3 157.4,5.7 157.4,12.5 C157.4,19.2 151.9,24.7 145,24.7 L13.2,24.7 C6.4,24.7 0.8,19.3 0.8,12.5 C0.8,5.8 6.4,0.3 13.2,0.3 L13.2,0.3 Z" id="Shape" fill="#000000" sketch:type="MSShapeGroup"></path>
            <g id="Group" transform="translate(13.000000, 5.000000)" fill="#FFFFFF" sketch:type="MSShapeGroup">
                <path d="M3.2,14 L6.8,14 C6.8,14 10.8,13.9 10.8,9.8 C10.8,9.8 11,6.5 8.5,6.5 C8.5,6.5 10.4,6.4 10.4,4 C10.4,1.6 8.8,0.5 6.9,0.5 L3.3,0.5 L3.2,0.5 L0.6,0.5 L0.6,14 L3.2,14 L3.2,14 L3.2,14 Z M3.2,2.9 L6.4,2.9 L6.9,2.9 C6.9,2.9 7.8,2.9 7.8,4.3 C7.8,5.7 7.3,5.9 6.7,5.9 L3.3,5.9 L3.3,2.9 L3.2,2.9 Z M3.2,7.9 L6.8,7.9 C6.8,7.9 8.1,7.9 8.1,9.7 C8.1,11.2 7.1,11.4 6.6,11.4 L6.4,11.4 L3.2,11.4 L3.2,7.9 L3.2,7.9 Z" id="Shape"></path>
                <path d="M16.2,3.9 C11.4,3.9 11.4,9 11.4,9 C11.4,9 11.1,14 16.2,14 C16.2,14 20.5,14.3 20.5,10.5 L18.3,10.5 C18.3,10.5 18.4,11.9 16.3,11.9 C16.3,11.9 14.1,12.1 14.1,9.6 L20.6,9.6 C20.5,9.6 21.2,3.9 16.2,3.9 L16.2,3.9 Z M14,7.9 C14,7.9 14.3,5.9 16.2,5.9 C18.1,5.9 18.1,7.9 18.1,7.9 L14,7.9 L14,7.9 Z" id="Shape"></path>
                <rect id="Rectangle-path" x="13.5" y="1.3" width="5.2" height="1.2"></rect>
            </g>
        </g>
    </g>
</svg>