<?xml version="1.0" encoding="UTF-8" standalone="no"?>
<svg width="37px" height="25px" viewBox="0 0 37 25" version="1.1" xmlns="http://www.w3.org/2000/svg" xmlns:xlink="http://www.w3.org/1999/xlink" xmlns:sketch="http://www.bohemiancoding.com/sketch/ns">
    <!-- Generator: Sketch 3.3.2 (12043) - http://www.bohemiancoding.com/sketch -->
    <title>Slice 5</title>
    <desc>Created with Sketch.</desc>
    <defs></defs>
    <g id="Page-1" stroke="none" stroke-width="1" fill="none" fill-rule="evenodd" sketch:type="MSPage">
        <g id="social_icons" sketch:type="MSLayerGroup" transform="translate(-122.000000, 0.000000)">
            <path d="M13.2,0.3 L145,0.3 C151.8,0.3 157.4,5.7 157.4,12.5 C157.4,19.2 151.9,24.7 145,24.7 L13.2,24.7 C6.4,24.7 0.8,19.3 0.8,12.5 C0.8,5.8 6.4,0.3 13.2,0.3 L13.2,0.3 Z" id="Shape" fill="#000000" sketch:type="MSShapeGroup"></path>
            <path d="M140.2,3.2 L129.1,3.2 C127.2,3.2 125.6,4.8 125.6,6.7 L125.6,10.4 L125.6,17.8 C125.6,19.7 127.2,21.3 129.1,21.3 L140.2,21.3 C142.1,21.3 143.7,19.7 143.7,17.8 L143.7,10.4 L143.7,6.7 C143.7,4.8 142.1,3.2 140.2,3.2 L140.2,3.2 Z M141.2,5.3 L141.6,5.3 L141.6,5.7 L141.6,8.4 L138.5,8.4 L138.5,5.3 L141.2,5.3 L141.2,5.3 Z M132.1,10.4 C132.7,9.6 133.6,9.1 134.7,9.1 C135.8,9.1 136.7,9.6 137.3,10.4 C137.7,10.9 137.9,11.6 137.9,12.3 C137.9,14.1 136.5,15.5 134.7,15.5 C132.9,15.5 131.5,14.1 131.5,12.3 C131.5,11.6 131.7,10.9 132.1,10.4 L132.1,10.4 Z M141.9,17.8 C141.9,18.8 141.1,19.5 140.2,19.5 L129.1,19.5 C128.1,19.5 127.4,18.7 127.4,17.8 L127.4,10.4 L130.1,10.4 C129.9,11 129.7,11.6 129.7,12.3 C129.7,15 131.9,17.3 134.7,17.3 C137.4,17.3 139.7,15.1 139.7,12.3 C139.7,11.6 139.6,11 139.3,10.4 L142,10.4 L142,17.8 L141.9,17.8 Z" id="Shape" fill="#FFFFFF" sketch:type="MSShapeGroup"></path>
        </g>
    </g>
</svg>