<?xml version="1.0" encoding="UTF-8" standalone="no"?>
<svg width="32px" height="25px" viewBox="0 0 32 25" version="1.1" xmlns="http://www.w3.org/2000/svg" xmlns:xlink="http://www.w3.org/1999/xlink" xmlns:sketch="http://www.bohemiancoding.com/sketch/ns">
    <!-- Generator: Sketch 3.3.2 (12043) - http://www.bohemiancoding.com/sketch -->
    <title>Slice 2</title>
    <desc>Created with Sketch.</desc>
    <defs></defs>
    <g id="Page-1" stroke="none" stroke-width="1" fill="none" fill-rule="evenodd" sketch:type="MSPage">
        <g id="social_icons" sketch:type="MSLayerGroup" transform="translate(-38.000000, 0.000000)">
            <path d="M13.2,0.3 L145,0.3 C151.8,0.3 157.4,5.7 157.4,12.5 C157.4,19.2 151.9,24.7 145,24.7 L13.2,24.7 C6.4,24.7 0.8,19.3 0.8,12.5 C0.8,5.8 6.4,0.3 13.2,0.3 L13.2,0.3 Z" id="Shape" fill="#000000" sketch:type="MSShapeGroup"></path>
            <path d="M62,8.5 C61.8,7.9 61.5,7.4 61.1,6.9 C60.8,6.4 60.4,5.9 59.9,5.5 C59.5,5.1 59,4.7 58.5,4.3 C58,4 57.4,3.7 56.9,3.4 C56.3,3.2 55.7,3 55.1,2.8 C54.5,2.7 53.8,2.6 53.2,2.6 C52.6,2.6 51.9,2.7 51.3,2.8 C50.7,2.9 50.1,3.1 49.5,3.4 C48.9,3.6 48.4,3.9 47.9,4.3 C47.4,4.6 46.9,5 46.5,5.5 C46.1,5.9 45.7,6.4 45.3,6.9 C45,7.4 44.7,8 44.4,8.5 C44.2,9.1 44,9.7 43.8,10.3 C43.7,10.9 43.6,11.6 43.6,12.2 C43.6,12.8 43.7,13.5 43.8,14.1 C43.9,14.7 44.1,15.3 44.4,15.9 C44.6,16.5 44.9,17 45.3,17.5 C45.6,18 46,18.5 46.5,18.9 C46.9,19.3 47.4,19.7 47.9,20.1 C48.4,20.4 49,20.7 49.5,21 C50.1,21.2 50.7,21.4 51.3,21.6 C51.9,21.7 52.6,21.8 53.2,21.8 C53.8,21.8 54.5,21.7 55.1,21.6 C55.7,21.5 56.3,21.3 56.9,21 C57.5,20.8 58,20.5 58.5,20.1 C59,19.8 59.5,19.4 59.9,18.9 C60.3,18.5 60.7,18 61.1,17.5 C61.4,17 61.7,16.4 62,15.9 C62.2,15.3 62.4,14.7 62.6,14.1 C62.7,13.5 62.8,12.8 62.8,12.2 C62.8,11.6 62.7,10.9 62.6,10.3 C62.4,9.7 62.2,9.1 62,8.5 L62,8.5 Z M53.2,4.1 C55.3,4.1 57.1,4.9 58.6,6.1 C58.6,6.1 57.4,7.9 54.3,9.1 C52.9,6.5 51.4,4.5 51.3,4.3 C51.9,4.2 52.5,4.1 53.2,4.1 L53.2,4.1 Z M51.2,4.3 C51.2,4.4 51.2,4.4 51.2,4.3 L51.2,4.3 Z M49.7,4.9 C49.8,5 51.3,7.1 52.7,9.6 C48.8,10.6 45.4,10.6 45.2,10.6 C45.8,8.1 47.5,6 49.7,4.9 L49.7,4.9 Z M47.1,17.7 C45.8,16.3 45,14.3 45,12.3 L45,12 C45.1,12 49.2,12.1 53.4,10.8 C53.6,11.3 53.9,11.7 54.1,12.2 C54,12.2 53.9,12.3 53.8,12.3 C49.4,13.7 47.1,17.7 47.1,17.7 L47.1,17.7 L47.1,17.7 Z M53.2,20.4 C51.3,20.4 49.6,19.8 48.2,18.7 L48.2,18.7 C48.2,18.7 48.1,18.6 48,18.6 C48.1,18.6 48.1,18.7 48.2,18.7 C48.2,18.7 49.8,15.3 54.6,13.6 L54.7,13.6 C55.8,16.6 56.3,19.1 56.4,19.8 C55.4,20.2 54.3,20.4 53.2,20.4 L53.2,20.4 Z M57.8,19 C57.7,18.5 57.3,16.1 56.2,13.2 C58.8,12.8 61.1,13.5 61.3,13.6 C60.9,15.8 59.6,17.8 57.8,19 L57.8,19 Z M55.7,11.9 C55.6,11.8 55.6,11.6 55.5,11.5 C55.3,11.1 55.1,10.7 55,10.3 C58.2,9 59.5,7.1 59.5,7.1 C60.6,8.5 61.3,10.3 61.4,12.2 C61.2,12.2 58.5,11.6 55.7,11.9 L55.7,11.9 Z" id="Shape" fill="#FFFFFF" sketch:type="MSShapeGroup"></path>
        </g>
    </g>
</svg>