<?xml version="1.0" encoding="UTF-8" standalone="no"?>
<svg width="28px" height="25px" viewBox="0 0 28 25" version="1.1" xmlns="http://www.w3.org/2000/svg" xmlns:xlink="http://www.w3.org/1999/xlink" xmlns:sketch="http://www.bohemiancoding.com/sketch/ns">
    <!-- Generator: Sketch 3.3.2 (12043) - http://www.bohemiancoding.com/sketch -->
    <title>Slice 3</title>
    <desc>Created with Sketch.</desc>
    <defs></defs>
    <g id="Page-1" stroke="none" stroke-width="1" fill="none" fill-rule="evenodd" sketch:type="MSPage">
        <g id="social_icons" sketch:type="MSLayerGroup" transform="translate(-70.000000, 0.000000)">
            <path d="M13.2,0.3 L145,0.3 C151.8,0.3 157.4,5.7 157.4,12.5 C157.4,19.2 151.9,24.7 145,24.7 L13.2,24.7 C6.4,24.7 0.8,19.3 0.8,12.5 C0.8,5.8 6.4,0.3 13.2,0.3 L13.2,0.3 Z" id="Shape" fill="#000000" sketch:type="MSShapeGroup"></path>
            <g id="Group" transform="translate(75.000000, 3.000000)" fill="#FFFFFF" sketch:type="MSShapeGroup">
                <rect id="Rectangle-path" x="0.6" y="6" width="3.8" height="11"></rect>
                <circle id="Oval" cx="2.5" cy="2.5" r="1.9"></circle>
                <path d="M17.1,11 C17.1,8 16.5,6.1 13,6.1 C11.3,6.1 10.2,6.7 9.8,7.6 L9.8,7.6 L9.8,6 L6.7,6 L6.7,17 L9.9,17 L9.9,11.6 C9.9,10.2 10.2,8.8 11.9,8.8 C13.6,8.8 13.8,10.4 13.8,11.7 L13.8,17 L17.1,17 L17.1,11 L17.1,11 Z" id="Shape"></path>
            </g>
        </g>
    </g>
</svg>