<?xml version="1.0" encoding="utf-8"?>
<!-- Generator: Adobe Illustrator 18.1.1, SVG Export Plug-In . SVG Version: 6.00 Build 0)  -->
<svg version="1.1" id="Tibor.co" xmlns="http://www.w3.org/2000/svg" xmlns:xlink="http://www.w3.org/1999/xlink" x="0px" y="0px"
	 viewBox="0 0 177 90" enable-background="new 0 0 177 90" xml:space="preserve">
<path d="M153.1,38.8c-0.5-0.3-1-0.7-1.4-1.2c-0.4-0.5-0.7-1.1-0.9-1.8c-0.2-0.7-0.3-1.4-0.3-2.1c0-0.8,0.1-1.5,0.3-2.2
	s0.5-1.3,0.9-1.7c0.4-0.5,0.9-0.9,1.4-1.2c0.5-0.3,1.2-0.4,1.9-0.4c1.4,0,2.5,0.5,3.3,1.6c0.7,1,1.1,2.4,1.1,3.9
	c0,1.6-0.4,2.9-1.1,3.9c-0.8,1-1.9,1.5-3.3,1.5l-0.2,0.1C154.3,39.2,153.7,39.1,153.1,38.8 M163,42c2-2.3,3-5.1,3-8.3
	c0-3.2-1-6-3-8.3c-2.1-2.3-4.7-3.5-8-3.5c-3.3,0-6,1.1-8,3.3c-2,2.2-3,5-3,8.5c0,3.4,1,6.2,3,8.4c2,2.2,4.7,3.3,8,3.3
	C158.3,45.4,161,44.3,163,42 M123.7,29.2c-0.5,1.4-0.7,2.9-0.7,4.5c0,3.1,1,5.8,3.1,8.2c2.1,2.3,4.6,3.5,7.7,3.5
	c0.4,0,0.9,0,1.5-0.1c0.6-0.1,1.1-0.1,1.4-0.2c1.2-0.3,2.3-0.7,3.2-1.3c1.2-0.8,1.8-1.7,1.8-2.7c0-0.8-0.3-1.5-0.8-2.1
	c-0.5-0.6-1.2-0.9-2-0.9c-0.1,0-0.4,0.1-0.8,0.2c-0.4,0.1-0.7,0.2-0.9,0.3c-0.5,0.1-1,0.3-1.5,0.4c-0.5,0.1-1.1,0.2-1.6,0.2
	c-0.2,0-0.5-0.1-1-0.2c-0.4-0.1-0.7-0.2-0.9-0.2c-1.8-0.8-2.7-2.5-2.7-5c0-1.7,0.4-3,1.3-4.1c0.8-1,2-1.5,3.5-1.5
	c0.6,0,1.4,0.2,2.4,0.5c0.5,0.2,1,0.3,1.3,0.4c0.3,0.1,0.6,0.2,0.9,0.2l0.3-0.1c0.8,0,1.3-0.3,1.8-0.9c0.4-0.6,0.7-1.3,0.7-2.1
	c0-1.5-0.9-2.7-2.6-3.5c-1.2-0.6-2.7-0.9-4.5-0.9c-2,0-3.7,0.3-5.1,1c-1.4,0.7-2.7,1.6-3.7,2.8C124.8,26.6,124.1,27.8,123.7,29.2
	 M118.8,44.4c0.7-0.7,1-1.5,1-2.5c0-1-0.4-1.9-1.1-2.6c-0.7-0.7-1.6-1.1-2.6-1.1c-1,0-1.8,0.4-2.5,1.1c-0.7,0.7-1,1.6-1,2.6
	c0,1,0.3,1.8,1,2.5c0.7,0.7,1.5,1,2.5,1C117.2,45.4,118.1,45.1,118.8,44.4 M99.7,43.9c0.5,0.6,1.2,0.9,2.1,1.1
	c0.9,0.1,1.7-0.1,2.4-0.7c0.8-0.6,1.2-1.6,1.2-2.9v-8.2c0-1.7,0.5-2.8,1.4-3.4c0.2-0.1,0.6-0.3,1.1-0.5c0.5-0.2,1.1-0.4,1.9-0.6
	c2.3-0.7,3.5-1.8,3.5-3.2c0-0.9-0.3-1.8-0.9-2.5c-0.6-0.7-1.3-1-2.2-1c-1.8,0-3.4,0.8-4.7,2.5c-0.2-0.7-0.7-1.2-1.3-1.5
	c-0.6-0.3-1.3-0.5-2-0.5c-0.9,0-1.6,0.3-2.3,0.9c-0.7,0.6-1,1.4-1,2.5v15.7C98.9,42.5,99.1,43.3,99.7,43.9 M81.9,38.8
	c-0.5-0.3-1-0.7-1.4-1.2c-0.4-0.5-0.7-1.1-0.9-1.8c-0.2-0.7-0.3-1.4-0.3-2.1c0-0.8,0.1-1.5,0.3-2.2c0.2-0.7,0.5-1.3,0.9-1.7
	c0.4-0.5,0.9-0.9,1.4-1.2c0.5-0.3,1.2-0.4,1.9-0.4c1.4,0,2.5,0.5,3.3,1.6c0.7,1,1.1,2.4,1.1,3.9c0,1.6-0.4,2.9-1.1,3.9
	c-0.8,1-1.9,1.5-3.3,1.5l-0.2,0.1C83,39.2,82.4,39.1,81.9,38.8 M91.7,42c2-2.3,3-5.1,3-8.3c0-3.2-1-6-3-8.3c-2.1-2.3-4.7-3.5-8-3.5
	c-3.3,0-6,1.1-8,3.3c-2,2.2-3,5-3,8.5c0,3.4,1,6.2,3,8.4c2,2.2,4.7,3.3,8,3.3C87.1,45.4,89.7,44.3,91.7,42 M64.6,23.3
	c-1.4-1-3-1.4-4.7-1.4c-1.4,0-2.5,0.2-3.5,0.5c-0.8,0.3-1.6,0.7-2.3,1.3l0-7.8c0-1-0.3-1.8-1-2.4c-0.7-0.6-1.4-0.9-2.3-0.9
	c-0.9,0-1.6,0.3-2.2,0.9c-0.6,0.6-0.9,1.4-0.9,2.5v25.6c0,0.8,0.3,1.5,0.8,2.2c0.5,0.7,1.2,1,2.2,1.1c0.7,0,1.3-0.2,1.9-0.5
	c0.7-0.5,1.2-1,1.5-1.6c0.7,0.9,1.5,1.5,2.4,1.9c1,0.4,2,0.6,3.1,0.6c3,0,5.5-1.2,7.4-3.7c1.8-2.3,2.7-5,2.7-8
	c0-1.2-0.1-2.3-0.4-3.4c-0.3-1.1-0.7-2.1-1.1-3C67.2,25.6,66,24.3,64.6,23.3 M62.1,29.8c0.8,1.1,1.1,2.3,1.1,3.8
	c0,0.7-0.1,1.5-0.3,2.1c-0.2,0.7-0.5,1.2-0.9,1.7c-0.4,0.5-0.9,0.9-1.4,1.2c-0.6,0.3-1.2,0.4-1.8,0.4c-1.4,0-2.5-0.5-3.3-1.5
	c-0.8-1-1.2-2.3-1.2-3.9c0-1.6,0.4-2.9,1.2-4c0.8-1,1.9-1.5,3.3-1.5C60.1,28.2,61.2,28.7,62.1,29.8 M37.1,44.1
	c0.6,0.6,1.4,0.9,2.4,0.9c0.9,0,1.7-0.3,2.3-1c0.6-0.6,0.9-1.4,0.9-2.4v-16c0-1-0.3-1.8-0.9-2.4c-0.6-0.7-1.4-1-2.3-1
	c-1,0-1.8,0.3-2.4,1c-0.6,0.7-0.9,1.5-0.9,2.4v16C36.2,42.6,36.5,43.4,37.1,44.1 M41,20.1c0.5-0.2,0.9-0.5,1.2-0.9
	c0.4-0.4,0.6-0.8,0.9-1.2c0.2-0.5,0.3-1,0.3-1.5c0-0.5-0.1-1-0.3-1.5c-0.2-0.5-0.5-0.9-0.9-1.2c-0.4-0.4-0.8-0.6-1.2-0.8
	c-0.5-0.2-1-0.3-1.5-0.3c-0.6,0-1.1,0.1-1.5,0.3c-0.5,0.2-0.9,0.5-1.2,0.8c-0.3,0.3-0.6,0.8-0.8,1.2c-0.2,0.5-0.3,1-0.3,1.5
	c0,0.5,0.1,1,0.3,1.5c0.2,0.5,0.5,0.9,0.8,1.2c0.4,0.4,0.8,0.6,1.2,0.9c0.5,0.2,1,0.3,1.5,0.3C40,20.4,40.5,20.3,41,20.1 M19.8,44.1
	c0.6,0.6,1.5,0.9,2.5,0.9c1,0,1.8-0.3,2.4-0.9c0.6-0.6,0.9-1.5,0.9-2.7V21.3h3.8c1.2,0,2-0.3,2.6-0.8c0.6-0.5,0.9-1.3,0.9-2.3
	c0-2.1-1.2-3.2-3.5-3.2H15.1c-2.3,0-3.5,1.1-3.5,3.2c0,2.1,1.2,3.1,3.5,3.1h3.7v20.1C18.8,42.6,19.1,43.5,19.8,44.1"/>
<g>
	<path d="M22.5,51.7l0-0.3c0-0.3,0.2-0.4,0.4-0.4c0.1,0,0.2,0,0.3,0.1c0.1,0.1,0.1,0.2,0.1,0.3v4.5c0,0.1,0,0.3-0.1,0.3
		c-0.1,0.1-0.2,0.1-0.3,0.1c-0.1,0-0.2,0-0.3-0.1c-0.1-0.1-0.1-0.2-0.1-0.3v-0.4c-0.2,0.2-0.3,0.4-0.5,0.5c-0.3,0.2-0.6,0.3-0.9,0.3
		c-0.7,0-1.2-0.2-1.7-0.7c-0.5-0.5-0.7-1.2-0.7-2c0-0.9,0.3-1.6,0.8-2.1c0.4-0.4,0.9-0.7,1.5-0.7c0.2,0,0.3,0,0.4,0
		c0.1,0,0.3,0.1,0.4,0.1c0.1,0.1,0.2,0.1,0.3,0.2C22.2,51.4,22.4,51.5,22.5,51.7z M19.6,53.7c0,0.5,0.1,1,0.3,1.4
		c0.2,0.4,0.6,0.6,1.1,0.6c0.5,0,0.9-0.2,1.2-0.6c0.2-0.3,0.3-0.8,0.3-1.3c0-0.6-0.1-1.1-0.4-1.4c-0.3-0.4-0.6-0.5-1-0.5
		c-0.5,0-0.9,0.2-1.1,0.6C19.7,52.6,19.6,53.1,19.6,53.7z"/>
	<path d="M28.4,55.9v-4.2H28c-0.2,0-0.3,0-0.3-0.1c-0.1-0.1-0.1-0.2-0.1-0.3c0-0.2,0.2-0.4,0.5-0.4h0.4v-1.3c0-0.3,0.1-0.6,0.3-0.8
		c0.2-0.2,0.5-0.3,0.8-0.3c0.2,0,0.4,0,0.5,0c0.2,0.1,0.3,0.2,0.3,0.4c0,0.1,0,0.2-0.1,0.2c-0.1,0.1-0.2,0.1-0.3,0.1h-0.3
		c-0.2,0-0.3,0.1-0.3,0.4V51h0.6c0.1,0,0.2,0,0.3,0.1c0.1,0.1,0.1,0.1,0.1,0.3c0,0.1,0,0.2-0.1,0.3c-0.1,0.1-0.2,0.1-0.3,0.1h-0.6
		v4.2c0,0.1,0,0.2-0.1,0.3c-0.1,0.1-0.2,0.1-0.3,0.1c-0.1,0-0.2,0-0.3-0.1C28.4,56.2,28.4,56.1,28.4,55.9z"/>
	<path d="M30.7,53.7L30.7,53.7c0-0.8,0.2-1.4,0.6-1.9c0.4-0.6,1-0.8,1.7-0.8c0.7,0,1.3,0.3,1.7,0.8c0.4,0.5,0.6,1.1,0.6,1.8
		c0,0.1,0,0.2-0.1,0.3C35.3,54,35.1,54,35,54h-3.3c0,0.5,0.2,0.9,0.5,1.2c0.3,0.3,0.7,0.4,1.1,0.4c0.3,0,0.5,0,0.8-0.1
		c0.2-0.1,0.4-0.2,0.7-0.4c0.1-0.1,0.3-0.2,0.3-0.2c0.1,0,0.1,0,0.2,0.1c0.1,0.1,0.1,0.2,0.1,0.3c0,0,0,0.1,0,0.1c0,0,0,0.1-0.1,0.2
		c-0.2,0.2-0.5,0.4-0.8,0.5c-0.4,0.2-0.7,0.2-1.2,0.2c-0.8,0-1.5-0.3-1.9-0.9C30.9,55,30.7,54.4,30.7,53.7z M31.6,53.3h2.9
		c0-0.5-0.1-0.9-0.4-1.2c-0.3-0.3-0.6-0.5-1-0.5c-0.5,0-0.8,0.1-1.1,0.4C31.8,52.4,31.6,52.8,31.6,53.3z"/>
	<path d="M37.8,55.9l-1.5-4.3l0-0.2c0-0.1,0-0.2,0.1-0.3c0.1-0.1,0.2-0.1,0.3-0.1c0.2,0,0.4,0.1,0.5,0.3l1.2,3.8l0,0l1.2-3.7
		c0.1-0.3,0.2-0.4,0.5-0.4c0.2,0,0.4,0.1,0.5,0.4l1.2,3.7l1.2-3.7c0-0.1,0.1-0.2,0.2-0.3c0.1-0.1,0.2-0.1,0.3-0.1
		c0.1,0,0.2,0,0.3,0.1c0.1,0.1,0.1,0.2,0.1,0.3c0,0.1,0,0.1,0,0.2L42.2,56c-0.1,0.1-0.1,0.3-0.2,0.3c-0.1,0.1-0.2,0.1-0.3,0.1
		c-0.1,0-0.2,0-0.3-0.1c-0.1-0.1-0.1-0.2-0.2-0.4L40,52.4l-1.1,3.5c-0.1,0.2-0.1,0.4-0.2,0.5c-0.1,0.1-0.2,0.1-0.3,0.1
		c-0.1,0-0.2,0-0.3-0.1C38,56.2,37.9,56.1,37.8,55.9z"/>
	<path d="M47.9,55.9v-6.9c0-0.1,0-0.3,0.1-0.3c0.1-0.1,0.2-0.1,0.3-0.1c0.1,0,0.2,0,0.3,0.1c0.1,0.1,0.1,0.2,0.1,0.3v2.6l0,0
		c0.1-0.2,0.3-0.4,0.6-0.5c0.3-0.1,0.5-0.2,0.8-0.2c0.5,0,1,0.2,1.3,0.6c0.4,0.4,0.5,0.8,0.5,1.4v3c0,0.1,0,0.2-0.1,0.3
		c-0.1,0.1-0.2,0.1-0.3,0.1c-0.1,0-0.2,0-0.3-0.1c-0.1-0.1-0.1-0.2-0.1-0.3V53c0-0.2,0-0.4-0.1-0.5c-0.1-0.2-0.1-0.3-0.2-0.4
		c-0.1-0.1-0.2-0.2-0.4-0.3c-0.1-0.1-0.3-0.1-0.5-0.1c-0.3,0-0.6,0.1-0.9,0.3c-0.3,0.2-0.4,0.6-0.4,1v2.9c0,0.1,0,0.2-0.1,0.3
		c-0.1,0.1-0.2,0.1-0.3,0.1c-0.1,0-0.2,0-0.3-0.1C47.9,56.2,47.9,56.1,47.9,55.9z"/>
	<path d="M53.6,53.7c0-0.8,0.2-1.4,0.7-2c0.4-0.5,1-0.8,1.7-0.8c0.7,0,1.3,0.3,1.7,0.8c0.4,0.5,0.6,1.1,0.6,1.9
		c0,0.8-0.2,1.4-0.6,1.9c-0.4,0.5-1,0.8-1.7,0.8c-0.7,0-1.3-0.3-1.7-0.8C53.8,55.1,53.6,54.4,53.6,53.7z M54.5,53.7
		c0,0.5,0.1,0.9,0.3,1.3c0.3,0.5,0.6,0.7,1.1,0.7c0.5,0,0.8-0.2,1.1-0.6c0.2-0.4,0.4-0.8,0.4-1.4c0-0.6-0.1-1-0.4-1.4
		c-0.3-0.4-0.6-0.6-1.1-0.6c-0.5,0-0.8,0.2-1.1,0.6C54.6,52.6,54.5,53.1,54.5,53.7z"/>
	<path d="M63.3,51.4c0,0.1,0,0.1,0,0.2c0,0.1,0,0.2-0.1,0.3C63.2,51.9,63.1,52,63,52c-0.1,0-0.2-0.1-0.3-0.1c-0.1,0-0.2-0.1-0.2-0.1
		c-0.2-0.1-0.4-0.1-0.5-0.1c-0.5,0-0.9,0.2-1.1,0.6c-0.3,0.4-0.4,0.8-0.4,1.3c0,0.5,0.1,1,0.2,1.3c0.2,0.5,0.6,0.7,1.1,0.7
		c0.1,0,0.2,0,0.2,0c0.2,0,0.3,0,0.5-0.1c0.2-0.1,0.3-0.1,0.4-0.2c0.1,0,0.2-0.1,0.2-0.1c0.1,0,0.2,0,0.2,0.1
		c0.1,0.1,0.1,0.2,0.1,0.3c0,0.3-0.2,0.4-0.5,0.6c-0.3,0.1-0.5,0.1-0.8,0.1c-0.7,0-1.3-0.2-1.8-0.8c-0.4-0.5-0.7-1.1-0.7-1.9
		c0-0.8,0.2-1.5,0.6-2c0.4-0.6,1-0.9,1.8-0.9c0.4,0,0.7,0,0.9,0.1C63.1,51.2,63.3,51.3,63.3,51.4z"/>
	<path d="M64.8,54.3v-2.9c0-0.1,0-0.2,0.1-0.3c0.1-0.1,0.2-0.1,0.3-0.1c0.1,0,0.2,0,0.3,0.1c0.1,0.1,0.1,0.2,0.1,0.3v2.9
		c0,0.4,0.1,0.7,0.3,1c0.2,0.2,0.5,0.3,0.9,0.3c0.5,0,0.8-0.2,1-0.5c0.1-0.2,0.2-0.5,0.2-0.9v-2.9c0-0.1,0-0.2,0.1-0.3
		c0.1-0.1,0.2-0.1,0.3-0.1c0.1,0,0.2,0,0.3,0.1c0.1,0.1,0.1,0.2,0.1,0.3v2.9c0,0.6-0.2,1.1-0.5,1.4c-0.4,0.4-0.9,0.6-1.7,0.6
		c-0.7,0-1.2-0.2-1.6-0.6C65,55.4,64.8,54.9,64.8,54.3z"/>
	<path d="M70.7,55.8c-0.1-0.1-0.1-0.1-0.2-0.2c0-0.1-0.1-0.2-0.1-0.2c0-0.1,0-0.2,0.1-0.3c0.1-0.1,0.2-0.1,0.3-0.1
		c0.1,0,0.3,0.1,0.5,0.2c0.1,0.1,0.1,0.1,0.2,0.1c0,0,0.1,0.1,0.1,0.1c0.1,0.1,0.2,0.1,0.3,0.1c0.1,0,0.3,0.1,0.4,0.1
		c0.3,0,0.5,0,0.7-0.1c0.2-0.1,0.4-0.3,0.4-0.6c0-0.2-0.1-0.4-0.4-0.6c-0.1-0.1-0.5-0.2-1.1-0.5c-0.9-0.4-1.3-0.8-1.3-1.4
		c0-0.4,0.2-0.8,0.5-1c0.3-0.3,0.7-0.4,1.2-0.4c0.3,0,0.6,0.1,0.9,0.2c0.3,0.1,0.5,0.2,0.7,0.4c0.1,0.1,0.2,0.3,0.2,0.4
		c0,0.1,0,0.2-0.1,0.3c-0.1,0.1-0.2,0.1-0.3,0.1c0,0-0.1,0-0.2-0.1c-0.1-0.1-0.3-0.2-0.6-0.3c-0.2-0.1-0.4-0.2-0.5-0.2
		c-0.3,0-0.6,0.1-0.7,0.2c-0.2,0.1-0.2,0.3-0.2,0.5c0.1,0.3,0.4,0.6,1,0.8l0.8,0.3c0.4,0.1,0.7,0.3,0.8,0.6c0.2,0.2,0.3,0.5,0.3,0.8
		c0,0.4-0.2,0.8-0.5,1.1c-0.4,0.3-0.9,0.5-1.5,0.5c-0.3,0-0.6,0-0.9-0.1C71.2,56.2,70.9,56,70.7,55.8z"/>
	<path d="M79.7,55.7l0,2.4c0,0.4-0.1,0.5-0.4,0.5c-0.1,0-0.2,0-0.3-0.1c-0.1-0.1-0.1-0.2-0.1-0.4v-6.6c0-0.1,0-0.3,0.1-0.3
		c0.1-0.1,0.2-0.1,0.3-0.1c0.1,0,0.2,0,0.3,0.1c0.1,0.1,0.1,0.2,0.1,0.3l0,0.3c0.1-0.2,0.3-0.4,0.4-0.5c0.2-0.2,0.6-0.2,0.9-0.2
		c0.7,0,1.3,0.2,1.7,0.8s0.7,1.1,0.7,1.9c0,0.8-0.2,1.4-0.6,2c-0.4,0.5-1,0.8-1.6,0.8c-0.3,0-0.6-0.1-0.8-0.2
		C80.1,56.1,79.9,55.9,79.7,55.7z M82.6,53.7c0-0.5-0.1-1-0.3-1.3c-0.3-0.4-0.6-0.6-1.1-0.6c-0.5,0-0.9,0.2-1.2,0.6
		c-0.2,0.4-0.3,0.8-0.3,1.3c0,0.3,0,0.6,0.1,0.8c0.1,0.2,0.2,0.5,0.3,0.6c0.1,0.2,0.3,0.3,0.5,0.4c0.2,0.1,0.4,0.1,0.6,0.1l0.1,0
		c0.4,0,0.8-0.2,1-0.5C82.4,54.7,82.6,54.2,82.6,53.7z"/>
	<path d="M84.7,53.7c0-0.8,0.2-1.4,0.7-2c0.4-0.5,1-0.8,1.7-0.8c0.7,0,1.3,0.3,1.7,0.8c0.4,0.5,0.6,1.1,0.6,1.9
		c0,0.8-0.2,1.4-0.6,1.9c-0.4,0.5-1,0.8-1.7,0.8c-0.7,0-1.3-0.3-1.7-0.8C84.9,55.1,84.7,54.4,84.7,53.7z M85.6,53.7
		c0,0.5,0.1,0.9,0.3,1.3c0.3,0.5,0.6,0.7,1.1,0.7c0.5,0,0.8-0.2,1.1-0.6c0.2-0.4,0.4-0.8,0.4-1.4c0-0.6-0.1-1-0.4-1.4
		c-0.3-0.4-0.6-0.6-1.1-0.6s-0.8,0.2-1.1,0.6C85.7,52.6,85.6,53.1,85.6,53.7z"/>
	<path d="M94.5,51.4c0,0.1,0,0.1,0,0.2c0,0.1,0,0.2-0.1,0.3c-0.1,0.1-0.2,0.1-0.3,0.1c-0.1,0-0.2-0.1-0.3-0.1
		c-0.1,0-0.2-0.1-0.2-0.1c-0.2-0.1-0.4-0.1-0.5-0.1c-0.5,0-0.9,0.2-1.1,0.6c-0.3,0.4-0.4,0.8-0.4,1.3c0,0.5,0.1,1,0.2,1.3
		c0.2,0.5,0.6,0.7,1.1,0.7c0.1,0,0.2,0,0.2,0c0.2,0,0.3,0,0.5-0.1c0.2-0.1,0.3-0.1,0.4-0.2c0.1,0,0.2-0.1,0.2-0.1
		c0.1,0,0.2,0,0.2,0.1c0.1,0.1,0.1,0.2,0.1,0.3c0,0.3-0.2,0.4-0.5,0.6c-0.3,0.1-0.5,0.1-0.8,0.1c-0.7,0-1.3-0.2-1.8-0.8
		c-0.4-0.5-0.7-1.1-0.7-1.9c0-0.8,0.2-1.5,0.6-2c0.4-0.6,1-0.9,1.8-0.9c0.4,0,0.7,0,0.9,0.1C94.2,51.2,94.4,51.3,94.5,51.4z"/>
	<path d="M96,54.3v-2.9c0-0.1,0-0.2,0.1-0.3c0.1-0.1,0.2-0.1,0.3-0.1c0.1,0,0.2,0,0.3,0.1c0.1,0.1,0.1,0.2,0.1,0.3v2.9
		c0,0.4,0.1,0.7,0.3,1c0.2,0.2,0.5,0.3,0.9,0.3c0.5,0,0.8-0.2,1-0.5c0.1-0.2,0.2-0.5,0.2-0.9v-2.9c0-0.1,0-0.2,0.1-0.3
		s0.2-0.1,0.3-0.1c0.1,0,0.2,0,0.3,0.1c0.1,0.1,0.1,0.2,0.1,0.3v2.9c0,0.6-0.2,1.1-0.5,1.4c-0.4,0.4-0.9,0.6-1.7,0.6
		c-0.7,0-1.2-0.2-1.6-0.6C96.1,55.4,96,54.9,96,54.3z"/>
	<path d="M101.8,55.8c-0.1-0.1-0.1-0.1-0.2-0.2c0-0.1-0.1-0.2-0.1-0.2c0-0.1,0-0.2,0.1-0.3c0.1-0.1,0.2-0.1,0.3-0.1
		c0.1,0,0.3,0.1,0.5,0.2c0.1,0.1,0.1,0.1,0.2,0.1c0,0,0.1,0.1,0.1,0.1c0.1,0.1,0.2,0.1,0.3,0.1c0.1,0,0.3,0.1,0.4,0.1
		c0.3,0,0.5,0,0.7-0.1c0.2-0.1,0.4-0.3,0.4-0.6c0-0.2-0.1-0.4-0.4-0.6c-0.1-0.1-0.5-0.2-1.1-0.5c-0.9-0.4-1.3-0.8-1.3-1.4
		c0-0.4,0.2-0.8,0.5-1c0.3-0.3,0.7-0.4,1.2-0.4c0.3,0,0.6,0.1,0.9,0.2c0.3,0.1,0.5,0.2,0.7,0.4c0.1,0.1,0.2,0.3,0.2,0.4
		c0,0.1,0,0.2-0.1,0.3c-0.1,0.1-0.2,0.1-0.3,0.1c0,0-0.1,0-0.2-0.1c-0.1-0.1-0.3-0.2-0.6-0.3c-0.2-0.1-0.4-0.2-0.5-0.2
		c-0.3,0-0.6,0.1-0.7,0.2c-0.2,0.1-0.2,0.3-0.2,0.5c0.1,0.3,0.4,0.6,1,0.8l0.8,0.3c0.4,0.1,0.7,0.3,0.8,0.6c0.2,0.2,0.3,0.5,0.3,0.8
		c0,0.4-0.2,0.8-0.5,1.1c-0.4,0.3-0.9,0.5-1.5,0.5c-0.3,0-0.6,0-0.9-0.1C102.3,56.2,102,56,101.8,55.8z"/>
</g>
<g>
	<path d="M19.5,77.4v-8c0-0.3,0.1-0.5,0.3-0.8c0.2-0.2,0.4-0.3,0.7-0.3c0.3,0,0.5,0.1,0.7,0.3c0.2,0.2,0.3,0.5,0.3,0.8l0,2.3
		c0.4-0.2,0.7-0.3,1-0.4c0.3-0.1,0.5-0.1,0.8-0.1c0.7,0,1.3,0.2,1.8,0.6c0.5,0.4,0.7,1,0.7,1.8v3.8c0,0.3-0.1,0.5-0.3,0.7
		c-0.2,0.2-0.4,0.3-0.7,0.3c-0.3,0-0.5-0.1-0.7-0.3c-0.2-0.2-0.3-0.4-0.3-0.7v-3.2c0-0.4-0.1-0.7-0.3-0.9c-0.2-0.2-0.5-0.3-0.8-0.3
		c-0.3,0-0.6,0.1-0.8,0.3c-0.2,0.2-0.3,0.5-0.3,0.9v3.2c0,0.3-0.1,0.6-0.3,0.7c-0.2,0.2-0.4,0.3-0.7,0.3c-0.3,0-0.5-0.1-0.7-0.3
		C19.6,77.9,19.5,77.7,19.5,77.4z"/>
	<path d="M32.9,75.5h-3.7c0,0.3,0.1,0.5,0.3,0.7c0.3,0.3,0.7,0.4,1.3,0.4c0.4,0,0.8-0.1,1.2-0.3c0.4-0.2,0.7-0.3,0.8-0.3
		c0.2,0,0.4,0.1,0.6,0.3c0.2,0.2,0.2,0.4,0.2,0.6c0,0.5-0.3,0.9-1,1.2c-0.6,0.3-1.3,0.4-2.2,0.4c-1.1,0-1.9-0.3-2.6-1
		c-0.6-0.7-1-1.6-1-2.6c0-1,0.3-1.9,1-2.6c0.7-0.7,1.5-1.1,2.5-1.1c1,0,1.8,0.4,2.4,1.1c0.6,0.7,0.9,1.5,0.9,2.4
		c0,0.3-0.1,0.6-0.2,0.7C33.6,75.5,33.3,75.5,32.9,75.5z M29.3,74.1h2.6c0-0.3-0.1-0.5-0.4-0.8c-0.3-0.3-0.6-0.4-1-0.4
		c-0.4,0-0.7,0.1-0.9,0.4C29.4,73.6,29.3,73.9,29.3,74.1z"/>
	<path d="M35,77.4v-8c0-0.3,0.1-0.5,0.3-0.7c0.2-0.2,0.4-0.3,0.7-0.3c0.3,0,0.5,0.1,0.7,0.3c0.2,0.2,0.3,0.5,0.3,0.8v8
		c0,0.3-0.1,0.5-0.3,0.7c-0.2,0.2-0.4,0.3-0.7,0.3c-0.3,0-0.5-0.1-0.7-0.3C35,77.9,35,77.7,35,77.4z"/>
	<path d="M38.5,77.4v-8c0-0.3,0.1-0.5,0.3-0.7c0.2-0.2,0.4-0.3,0.7-0.3c0.3,0,0.5,0.1,0.7,0.3c0.2,0.2,0.3,0.5,0.3,0.8v8
		c0,0.3-0.1,0.5-0.3,0.7c-0.2,0.2-0.4,0.3-0.7,0.3c-0.3,0-0.5-0.1-0.7-0.3C38.6,77.9,38.5,77.7,38.5,77.4z"/>
	<path d="M45.2,78.5c-1,0-1.9-0.3-2.5-1c-0.6-0.7-0.9-1.6-0.9-2.6c0-1.1,0.3-1.9,0.9-2.6c0.6-0.7,1.5-1,2.5-1c1,0,1.8,0.4,2.5,1.1
		c0.6,0.7,0.9,1.6,0.9,2.6c0,1-0.3,1.9-0.9,2.6C47.1,78.2,46.3,78.5,45.2,78.5z M45.2,76.6L45.2,76.6c0.5,0,0.8-0.2,1.1-0.5
		c0.2-0.3,0.4-0.7,0.4-1.2c0-0.5-0.1-0.9-0.4-1.2c-0.2-0.3-0.6-0.5-1-0.5c-0.2,0-0.4,0-0.6,0.1c-0.2,0.1-0.3,0.2-0.4,0.4
		c-0.1,0.2-0.2,0.3-0.3,0.5c-0.1,0.2-0.1,0.4-0.1,0.7c0,0.2,0,0.5,0.1,0.7c0.1,0.2,0.1,0.4,0.3,0.6c0.1,0.2,0.3,0.3,0.4,0.4
		C44.8,76.6,45,76.6,45.2,76.6z"/>
	<path d="M50,73.7c0-1.3,0.5-2.5,1.5-3.4c1-0.9,2.2-1.4,3.5-1.4c0.5,0,0.9,0,1.3,0.1c0.4,0.1,0.8,0.2,1.1,0.4
		c0.4,0.2,0.7,0.4,0.9,0.7c0.3,0.3,0.5,0.6,0.7,0.9c0.1,0.3,0.3,0.5,0.3,0.8c0.1,0.3,0.1,0.6,0.1,0.9c0,1.1-0.3,1.9-0.9,2.6
		c-0.6,0.6-1.2,1-2,1.1c-0.1,0-0.2,0-0.3,0.1c-0.5,0-0.7-0.2-0.7-0.7c-0.2,0.2-0.5,0.4-0.8,0.5c-0.3,0.1-0.6,0.1-0.8,0.1
		c-0.1,0-0.2,0-0.2,0c-0.5-0.1-0.9-0.3-1.2-0.8c-0.1-0.2-0.2-0.4-0.3-0.6c-0.1-0.2-0.1-0.5-0.1-0.8l0.1-0.6c0-0.3,0.1-0.6,0.3-0.9
		c0.2-0.3,0.4-0.6,0.6-0.8c0.5-0.5,1-0.7,1.7-0.7c0.3,0,0.6,0.1,0.9,0.2c0.3,0.1,0.5,0.3,0.7,0.6l0.1-0.3c0-0.1,0.1-0.2,0.2-0.3
		c0.1-0.1,0.2-0.1,0.3-0.1c0.2,0,0.3,0.1,0.4,0.2c0.1,0.1,0.2,0.2,0.2,0.4v0.2l-0.5,2.7l0,0.2c0,0.1,0.1,0.2,0.2,0.2l0.2,0
		c0.3-0.1,0.6-0.4,0.7-0.8c0.1-0.3,0.2-0.7,0.2-1.1c0-1-0.3-1.8-0.9-2.3c-0.6-0.6-1.3-0.8-2.3-0.8c-1.1,0-2,0.3-2.7,1
		c-0.3,0.3-0.5,0.6-0.7,0.9c-0.2,0.3-0.3,0.7-0.3,1.1l0,0.7c0,0.6,0,1,0.2,1.5c0.2,0.4,0.5,0.8,0.9,1.2c0.3,0.3,0.7,0.6,1.2,0.7
		c0.5,0.2,0.9,0.2,1.4,0.2c0.4,0,0.8,0,1.1-0.1c0.3-0.1,0.6-0.2,0.9-0.4l0.3-0.2c0.1-0.1,0.3-0.1,0.4-0.1c0.1,0,0.3,0,0.4,0.1
		c0.1,0.1,0.1,0.2,0.1,0.3c0,0.1,0,0.2-0.1,0.3c0,0.1-0.1,0.1-0.3,0.3c-0.4,0.3-0.9,0.6-1.4,0.8c-0.5,0.2-1.1,0.3-1.7,0.3
		c-0.8,0-1.5-0.2-2.2-0.5c-0.3-0.1-0.5-0.3-0.8-0.5c-0.2-0.2-0.5-0.4-0.7-0.6c-0.4-0.4-0.7-0.9-0.9-1.5C50.1,74.9,50,74.3,50,73.7z
		 M53.9,74.9c0.1,0.1,0.3,0.1,0.5,0.2c0.4,0,0.7-0.1,1-0.4c0.3-0.3,0.4-0.6,0.4-1c0-0.3-0.1-0.5-0.3-0.7c-0.2-0.2-0.4-0.3-0.7-0.3
		c-0.4,0-0.7,0.1-0.9,0.4c-0.2,0.3-0.3,0.6-0.3,1C53.6,74.5,53.7,74.7,53.9,74.9z"/>
	<path d="M61.6,73.3h-0.3c-0.3,0-0.6-0.1-0.7-0.2c-0.2-0.2-0.3-0.4-0.3-0.8c0-0.3,0.1-0.6,0.3-0.7c0.2-0.1,0.4-0.2,0.7-0.2h0.3V70
		c0-0.3,0.1-0.5,0.3-0.7c0.2-0.2,0.4-0.3,0.8-0.3c0.3,0,0.6,0.1,0.7,0.3c0.2,0.2,0.3,0.4,0.3,0.7v1.4h0.6c0.3,0,0.6,0.1,0.8,0.2
		c0.2,0.2,0.3,0.4,0.3,0.7c0,0.3-0.1,0.5-0.3,0.7c-0.2,0.2-0.4,0.2-0.7,0.2h-0.6v4c0,0.4-0.1,0.6-0.3,0.8c-0.2,0.2-0.5,0.3-0.8,0.3
		c-0.3,0-0.5-0.1-0.6-0.3c-0.2-0.2-0.2-0.5-0.2-0.7V73.3z"/>
	<path d="M67.2,70.7c-0.2,0-0.3,0-0.5-0.1c-0.1-0.1-0.3-0.2-0.4-0.3c-0.1-0.1-0.2-0.2-0.3-0.4c-0.1-0.1-0.1-0.3-0.1-0.5
		c0-0.2,0-0.3,0.1-0.5c0.1-0.1,0.1-0.3,0.3-0.4c0.1-0.1,0.2-0.2,0.4-0.3c0.1-0.1,0.3-0.1,0.5-0.1c0.2,0,0.3,0,0.5,0.1
		c0.1,0.1,0.3,0.1,0.4,0.3c0.1,0.1,0.2,0.2,0.3,0.4c0.1,0.1,0.1,0.3,0.1,0.5c0,0.2,0,0.3-0.1,0.5c-0.1,0.1-0.2,0.3-0.3,0.4
		c-0.1,0.1-0.2,0.2-0.4,0.3C67.5,70.7,67.3,70.7,67.2,70.7z M66.1,77.4v-5c0-0.3,0.1-0.6,0.3-0.8c0.2-0.2,0.4-0.3,0.7-0.3
		c0.3,0,0.5,0.1,0.7,0.3c0.2,0.2,0.3,0.5,0.3,0.8v5c0,0.3-0.1,0.5-0.3,0.7c-0.2,0.2-0.4,0.3-0.7,0.3c-0.3,0-0.5-0.1-0.7-0.3
		C66.2,77.9,66.1,77.7,66.1,77.4z"/>
	<path d="M76,72.9c0.1,0.3,0.3,0.6,0.4,0.9c0.1,0.3,0.1,0.7,0.1,1.1c0,1-0.3,1.8-0.8,2.5c-0.6,0.8-1.4,1.2-2.3,1.2
		c-0.3,0-0.7-0.1-1-0.2c-0.3-0.1-0.6-0.3-0.8-0.6c-0.1,0.2-0.2,0.4-0.5,0.5c-0.2,0.1-0.4,0.2-0.6,0.2c-0.3,0-0.5-0.1-0.7-0.4
		c-0.2-0.2-0.2-0.4-0.2-0.7v-8c0-0.3,0.1-0.6,0.3-0.8c0.2-0.2,0.4-0.3,0.7-0.3c0.3,0,0.5,0.1,0.7,0.3c0.2,0.2,0.3,0.4,0.3,0.8l0,2.4
		c0.2-0.2,0.4-0.3,0.7-0.4c0.3-0.1,0.6-0.2,1.1-0.2c0.5,0,1,0.1,1.5,0.4C75.4,71.9,75.8,72.4,76,72.9z M73.1,73.2
		c-0.4,0-0.8,0.2-1,0.5c-0.2,0.3-0.4,0.7-0.4,1.2c0,0.5,0.1,0.9,0.4,1.2c0.2,0.3,0.6,0.5,1,0.5c0.2,0,0.4,0,0.6-0.1
		c0.2-0.1,0.3-0.2,0.4-0.4c0.1-0.2,0.2-0.3,0.3-0.5c0.1-0.2,0.1-0.4,0.1-0.7c0-0.5-0.1-0.9-0.4-1.2C73.9,73.3,73.6,73.2,73.1,73.2z"
		/>
	<path d="M80.8,78.5c-1,0-1.9-0.3-2.5-1c-0.6-0.7-0.9-1.6-0.9-2.6c0-1.1,0.3-1.9,0.9-2.6c0.6-0.7,1.5-1,2.5-1c1,0,1.8,0.4,2.5,1.1
		c0.6,0.7,0.9,1.6,0.9,2.6c0,1-0.3,1.9-0.9,2.6C82.6,78.1,81.8,78.5,80.8,78.5z M80.8,76.5L80.8,76.5c0.5,0,0.8-0.2,1.1-0.5
		c0.2-0.3,0.4-0.7,0.4-1.2c0-0.5-0.1-0.9-0.4-1.2c-0.2-0.3-0.6-0.5-1-0.5c-0.2,0-0.4,0-0.6,0.1c-0.2,0.1-0.3,0.2-0.4,0.4
		c-0.1,0.2-0.2,0.3-0.3,0.5c-0.1,0.2-0.1,0.4-0.1,0.7c0,0.2,0,0.5,0.1,0.7c0.1,0.2,0.1,0.4,0.3,0.6c0.1,0.2,0.3,0.3,0.4,0.4
		C80.4,76.5,80.6,76.5,80.8,76.5z"/>
	<path d="M85.1,77.3v-4.9c0-0.3,0.1-0.6,0.3-0.8c0.2-0.2,0.4-0.3,0.7-0.3c0.2,0,0.4,0.1,0.6,0.2c0.2,0.1,0.3,0.3,0.4,0.5
		c0.4-0.5,0.9-0.8,1.5-0.8c0.3,0,0.5,0.1,0.7,0.3c0.2,0.2,0.3,0.5,0.3,0.8c0,0.5-0.4,0.8-1.1,1c-0.2,0.1-0.4,0.1-0.6,0.2
		c-0.2,0.1-0.3,0.1-0.3,0.2c-0.3,0.2-0.4,0.5-0.4,1.1v2.6c0,0.4-0.1,0.7-0.4,0.9c-0.2,0.2-0.5,0.2-0.8,0.2c-0.3,0-0.5-0.2-0.6-0.3
		C85.2,77.9,85.1,77.6,85.1,77.3z"/>
	<path d="M90.4,78.5c-0.3,0-0.6-0.1-0.8-0.3c-0.2-0.2-0.3-0.5-0.3-0.8c0-0.3,0.1-0.6,0.3-0.8c0.2-0.2,0.5-0.3,0.8-0.3
		c0.3,0,0.6,0.1,0.8,0.3c0.2,0.2,0.3,0.5,0.3,0.8c0,0.3-0.1,0.6-0.3,0.8C91,78.4,90.7,78.5,90.4,78.5z"/>
	<path d="M93.7,72.4c0.3-0.4,0.7-0.7,1.2-0.9s1-0.3,1.6-0.3c0.5,0,1,0.1,1.4,0.3c0.5,0.3,0.8,0.6,0.8,1.1c0,0.3-0.1,0.5-0.2,0.6
		c-0.1,0.2-0.3,0.3-0.6,0.3l-0.1,0c-0.1,0-0.2,0-0.3-0.1c-0.1,0-0.2-0.1-0.4-0.1c-0.3-0.1-0.6-0.2-0.7-0.2c-0.5,0-0.8,0.2-1.1,0.5
		c-0.3,0.3-0.4,0.7-0.4,1.3c0,0.8,0.3,1.3,0.8,1.6c0.1,0,0.2,0.1,0.3,0.1c0.1,0,0.2,0,0.3,0.1c0.2,0,0.3,0,0.5-0.1
		c0.2,0,0.3-0.1,0.5-0.1c0.1,0,0.2-0.1,0.3-0.1c0.1,0,0.2-0.1,0.2-0.1c0.2,0,0.4,0.1,0.6,0.3c0.2,0.2,0.3,0.4,0.3,0.6
		c0,0.3-0.2,0.6-0.5,0.9c-0.3,0.2-0.6,0.3-1,0.4c-0.1,0-0.3,0-0.4,0.1c-0.2,0-0.4,0-0.5,0c-1,0-1.8-0.4-2.4-1.1
		c-0.6-0.7-1-1.6-1-2.6c0-0.5,0.1-1,0.2-1.4C93.3,73,93.5,72.7,93.7,72.4z"/>
	<path d="M103,78.5c-1,0-1.9-0.3-2.5-1c-0.6-0.7-0.9-1.6-0.9-2.6c0-1.1,0.3-1.9,0.9-2.6c0.6-0.7,1.5-1,2.5-1c1,0,1.8,0.4,2.5,1.1
		c0.6,0.7,0.9,1.6,0.9,2.6c0,1-0.3,1.9-0.9,2.6C104.8,78.2,104,78.5,103,78.5z M102.9,76.6L102.9,76.6c0.5,0,0.8-0.2,1.1-0.5
		c0.2-0.3,0.4-0.7,0.4-1.2c0-0.5-0.1-0.9-0.4-1.2c-0.2-0.3-0.6-0.5-1-0.5c-0.2,0-0.4,0-0.6,0.1c-0.2,0.1-0.3,0.2-0.4,0.4
		c-0.1,0.2-0.2,0.3-0.3,0.5c-0.1,0.2-0.1,0.4-0.1,0.7c0,0.2,0,0.5,0.1,0.7c0.1,0.2,0.1,0.4,0.3,0.6c0.1,0.2,0.3,0.3,0.4,0.4
		C102.5,76.6,102.7,76.6,102.9,76.6z"/>
</g>
</svg>
